# Blender v2.78 (sub 0) OBJ File: ''
# www.blender.org
mtllib arm_right_upper.mtl
o Cube.003_Cube.006
v -0.833449 5.514036 0.127969
v -0.704949 5.669025 0.107545
v -0.833449 5.514036 -0.013476
v -0.704949 5.669025 0.006949
v -0.695011 5.485025 0.127969
v -0.649093 5.585361 0.107545
v -0.695011 5.485025 -0.013476
v -0.649093 5.585361 0.006949
v -0.830804 5.175353 0.075358
v -0.830804 5.175353 -0.008791
v -0.746655 5.175353 0.075358
v -0.746655 5.175353 -0.008791
v -0.723678 5.429693 0.002600
v -0.830821 5.450435 0.002600
v -0.830821 5.450435 0.111893
v -0.723678 5.429693 0.111893
v -0.781094 5.665612 0.150995
v -0.781094 5.665612 -0.036502
v -0.652092 5.546506 -0.036502
v -0.652092 5.546506 0.150995
v -0.828007 5.588663 -0.035559
v -0.673740 5.510056 -0.035559
v -0.673740 5.510056 0.150052
v -0.828007 5.588663 0.150052
v -0.846779 4.590910 0.042075
v -0.846779 4.590910 -0.042074
v -0.762630 4.590910 0.042075
v -0.762630 4.590910 -0.042074
v -0.890161 4.429052 0.043070
v -0.890161 4.416371 -0.041188
v -0.756230 4.429052 0.043070
v -0.756230 4.416371 -0.041188
v -0.925406 4.322770 0.082335
v -0.925406 4.303240 -0.047432
v -0.719136 4.322770 0.082335
v -0.719136 4.303240 -0.047432
v -0.928778 4.271115 0.099416
v -0.928778 4.248846 -0.048553
v -0.693575 4.271115 0.099416
v -0.693575 4.248846 -0.048553
v -0.896042 4.218822 0.087414
v -0.896042 4.202402 -0.021691
v -0.722613 4.218822 0.087414
v -0.722613 4.202402 -0.021691
v -0.420663 5.270078 -0.180279
v -0.778619 5.630150 0.064679
v -0.432267 5.299535 -0.240536
v -0.790223 5.659607 0.004421
v -0.242934 5.522572 -0.091070
v -0.286897 5.764408 0.035620
v -0.254538 5.552029 -0.151328
v -0.298501 5.793865 -0.024637
vn -0.0448 0.9990 0.0000
vn 0.5224 0.4762 -0.7074
vn 0.9970 -0.0770 0.0000
vn 0.5224 0.4762 0.7074
vn 0.0046 0.0428 -0.9991
vn 0.8317 0.5552 0.0000
vn 0.0000 -0.0569 0.9984
vn -1.0000 -0.0001 0.0000
vn 0.9959 -0.0900 0.0000
vn -0.0148 -0.1361 0.9906
vn -0.0507 -0.2503 0.9668
vn 0.8879 -0.4600 0.0000
vn -0.9991 -0.0413 0.0000
vn -0.0507 -0.2503 -0.9668
vn -0.0082 -0.0117 0.9999
vn 0.8598 -0.5106 0.0000
vn -0.0082 -0.0117 -0.9999
vn -0.8538 0.5205 0.0000
vn -0.9974 0.0727 0.0000
vn -0.1363 -0.3706 -0.9187
vn 0.7620 -0.6476 0.0000
vn -0.1363 -0.3706 0.9187
vn 0.9993 0.0380 -0.0029
vn 0.0000 0.0569 -0.9984
vn 0.9996 -0.0273 0.0000
vn -0.9996 0.0273 0.0000
vn 0.0000 0.3466 0.9380
vn -0.9682 0.2496 -0.0188
vn 0.0000 0.0061 1.0000
vn 0.0000 -0.0051 -1.0000
vn 0.9027 0.4255 -0.0640
vn 0.0000 0.0551 -0.9985
vn 0.9484 0.3136 -0.0472
vn -0.9531 0.2994 -0.0451
vn 0.8644 -0.4972 0.0748
vn -0.9980 0.0621 -0.0093
vn 0.0000 0.3140 0.9494
vn 0.0000 0.0206 -0.9998
vn 0.0000 -0.9889 0.1488
vn -0.8362 -0.5422 0.0816
vn 0.0000 -0.2237 0.9747
vn 0.0000 -0.5007 -0.8656
vn -0.7535 -0.6362 -0.1659
vn -0.1705 0.4328 -0.8852
vn 0.9725 0.2188 -0.0803
vn 0.1705 -0.4328 0.8852
vn 0.8156 -0.4422 -0.3732
vn -0.2082 0.8623 0.4616
usemtl None
s off
f 17//1 2//1 4//1 18//1
f 18//2 4//2 8//2 19//2
f 19//3 8//3 6//3 20//3
f 20//4 6//4 2//4 17//4
f 14//5 13//5 12//5 10//5
f 8//6 4//6 2//6 6//6
f 11//7 9//7 25//7 27//7
f 15//8 14//8 10//8 9//8
f 13//9 16//9 11//9 12//9
f 16//10 15//10 9//10 11//10
f 5//11 1//11 15//11 16//11
f 7//12 5//12 16//12 13//12
f 1//13 3//13 14//13 15//13
f 3//14 7//14 13//14 14//14
f 23//15 20//15 17//15 24//15
f 22//16 19//16 20//16 23//16
f 21//17 18//17 19//17 22//17
f 24//18 17//18 18//18 21//18
f 1//19 24//19 21//19 3//19
f 3//20 21//20 22//20 7//20
f 7//21 22//21 23//21 5//21
f 5//22 23//22 24//22 1//22
f 28//23 27//23 31//23 32//23
f 10//24 12//24 28//24 26//24
f 12//25 11//25 27//25 28//25
f 9//26 10//26 26//26 25//26
f 31//27 29//27 33//27 35//27
f 25//28 26//28 30//28 29//28
f 27//29 25//29 29//29 31//29
f 26//30 28//30 32//30 30//30
f 36//31 35//31 39//31 40//31
f 30//32 32//32 36//32 34//32
f 32//33 31//33 35//33 36//33
f 29//34 30//34 34//34 33//34
f 40//35 39//35 43//35 44//35
f 33//36 34//36 38//36 37//36
f 35//37 33//37 37//37 39//37
f 34//38 36//38 40//38 38//38
f 42//39 44//39 43//39 41//39
f 37//40 38//40 42//40 41//40
f 39//41 37//41 41//41 43//41
f 38//42 40//42 44//42 42//42
f 45//43 46//43 48//43 47//43
f 47//44 48//44 52//44 51//44
f 51//45 52//45 50//45 49//45
f 49//46 50//46 46//46 45//46
f 47//47 51//47 49//47 45//47
f 52//48 48//48 46//48 50//48
