# Blender v2.78 (sub 0) OBJ File: ''
# www.blender.org
mtllib arm_right_lower.mtl
o Cube.004_Cube.007
v -0.844346 4.138451 0.055902
v -0.831473 4.211571 0.019977
v -0.844346 4.110312 -0.004590
v -0.831473 4.184895 -0.037371
v -0.777630 4.138451 0.055902
v -0.778176 4.242451 0.005613
v -0.777630 4.110312 -0.004590
v -0.778176 4.215775 -0.051735
v -0.855470 3.907835 0.142341
v -0.855470 3.885260 0.093811
v -0.801946 3.907835 0.142341
v -0.801946 3.885260 0.093811
v -0.848881 4.186173 0.058223
v -0.848881 4.139281 -0.042585
v -0.749461 4.175771 -0.059559
v -0.749461 4.222663 0.041249
v -0.845177 3.650532 0.249905
v -0.845177 3.632091 0.210260
v -0.801453 3.650532 0.249905
v -0.801453 3.632091 0.210260
v -0.834364 3.325480 0.459283
v -0.834364 3.310800 0.427725
v -0.799559 3.325480 0.459283
v -0.799559 3.310800 0.427725
vn -0.9138 0.3683 -0.1713
vn -0.2476 0.1138 -0.9621
vn 0.7541 0.5955 -0.2770
vn -0.2476 0.8092 0.5328
vn 0.9951 -0.0893 0.0416
vn -0.5385 0.7640 -0.3554
vn 1.0000 0.0016 -0.0007
vn 0.0000 0.3510 0.9364
vn 0.0000 -0.4006 -0.9162
vn -0.9990 0.0410 -0.0191
vn 0.0844 0.0777 0.9934
vn 0.9464 -0.2929 0.1362
vn 0.0844 -0.7097 -0.6994
vn -0.9943 -0.0967 0.0450
vn 0.0000 0.5415 0.8407
vn -0.9993 -0.0335 0.0156
vn 0.0000 0.3857 0.9226
vn 0.0000 -0.4179 -0.9085
vn 0.0000 -0.9067 0.4218
vn 0.0000 -0.5605 -0.8281
vn 1.0000 0.0045 -0.0021
vn -0.9996 -0.0256 0.0119
usemtl None
s off
f 13//1 2//1 4//1 14//1
f 14//2 4//2 8//2 15//2
f 15//3 8//3 6//3 16//3
f 16//4 6//4 2//4 13//4
f 7//5 5//5 11//5 12//5
f 8//6 4//6 2//6 6//6
f 12//7 11//7 19//7 20//7
f 5//8 1//8 9//8 11//8
f 3//9 7//9 12//9 10//9
f 1//10 3//10 10//10 9//10
f 5//11 16//11 13//11 1//11
f 7//12 15//12 16//12 5//12
f 3//13 14//13 15//13 7//13
f 1//14 13//14 14//14 3//14
f 19//15 17//15 21//15 23//15
f 9//16 10//16 18//16 17//16
f 11//17 9//17 17//17 19//17
f 10//18 12//18 20//18 18//18
f 22//19 24//19 23//19 21//19
f 18//20 20//20 24//20 22//20
f 20//21 19//21 23//21 24//21
f 17//22 18//22 22//22 21//22
o Cube.005_Cube.008
v -0.898368 4.218286 0.059796
v -0.878058 4.248343 0.037420
v -0.900754 4.186603 -0.004793
v -0.880034 4.222096 -0.016087
v -0.830460 4.195960 0.068241
v -0.824972 4.223233 0.047778
v -0.832845 4.164276 0.003652
v -0.826948 4.196985 -0.005730
v -0.911602 3.853530 0.246437
v -0.911602 3.838036 0.212599
v -0.874385 3.853530 0.246437
v -0.874385 3.838036 0.212599
v -0.900465 4.244384 0.059039
v -0.903562 4.203247 -0.024821
v -0.817645 4.169561 -0.011470
v -0.814548 4.210699 0.072390
v -0.894036 4.162686 0.074020
v -0.847953 4.147535 0.079750
v -0.849572 4.126034 0.035919
v -0.895655 4.141185 0.030189
v -0.907828 3.581692 0.379555
v -0.907828 3.559991 0.340153
v -0.862845 3.581692 0.379555
v -0.862845 3.559991 0.340153
v -0.906692 3.459991 0.442172
v -0.906692 3.426114 0.361419
v -0.836471 3.459991 0.442172
v -0.836471 3.426114 0.361419
v -0.917582 3.419574 0.500399
v -0.917582 3.367028 0.375142
v -0.808663 3.419574 0.500399
v -0.808663 3.367028 0.375142
v -0.917582 3.376174 0.531781
v -0.917582 3.323628 0.406525
v -0.808663 3.376174 0.531781
v -0.808663 3.323628 0.406525
v -0.887031 3.326504 0.521907
v -0.887031 3.303435 0.466917
v -0.839213 3.326504 0.521907
v -0.839213 3.303435 0.466917
vn -0.4943 0.7875 -0.3681
vn 0.2527 0.2172 -0.9428
vn 0.9125 0.3529 -0.2068
vn 0.3019 0.8705 0.3888
vn 0.0288 0.4883 0.8722
vn 0.4543 0.7930 -0.4058
vn -0.9999 -0.0111 0.0056
vn -0.0352 -0.5171 -0.8552
vn -0.9986 0.0523 -0.0041
vn 0.9968 -0.0781 0.0164
vn -0.1512 -0.0309 0.9880
vn 0.5907 -0.7328 0.3377
vn -0.2088 -0.7950 -0.5696
vn -0.9942 -0.0777 0.0748
vn 0.9426 -0.3124 0.1184
vn -0.9959 -0.0606 0.0665
vn -0.1047 -0.6142 -0.7822
vn -0.0400 0.2447 0.9688
vn 0.0000 0.4575 0.8892
vn 0.0000 0.4398 0.8981
vn 0.0000 -0.4170 -0.9089
vn 0.9993 0.0338 -0.0172
vn 0.0000 -0.2262 -0.9741
vn 0.0000 -0.1569 -0.9876
vn 0.9811 0.1758 -0.0813
vn -1.0000 -0.0077 0.0036
vn 1.0000 0.0000 0.0000
vn 0.9067 0.3889 -0.1631
vn -0.9838 0.1652 -0.0693
vn 0.0000 0.8215 0.5702
vn 0.0000 -0.1950 0.9808
vn -1.0000 0.0000 0.0000
vn 0.0000 0.5860 0.8103
vn 0.0000 -0.5860 -0.8103
vn 0.0000 -0.9221 0.3868
vn 0.0000 -0.9484 -0.3171
vn 0.8086 -0.5426 0.2276
vn -0.8086 -0.5426 0.2276
usemtl None
s off
f 37//23 26//23 28//23 38//23
f 38//24 28//24 32//24 39//24
f 39//25 32//25 30//25 40//25
f 40//26 30//26 26//26 37//26
f 42//27 41//27 33//27 35//27
f 32//28 28//28 26//28 30//28
f 33//29 34//29 46//29 45//29
f 44//30 43//30 36//30 34//30
f 41//31 44//31 34//31 33//31
f 43//32 42//32 35//32 36//32
f 29//33 40//33 37//33 25//33
f 31//34 39//34 40//34 29//34
f 27//35 38//35 39//35 31//35
f 25//36 37//36 38//36 27//36
f 31//37 29//37 42//37 43//37
f 25//38 27//38 44//38 41//38
f 27//39 31//39 43//39 44//39
f 29//40 25//40 41//40 42//40
f 47//41 45//41 49//41 51//41
f 35//42 33//42 45//42 47//42
f 34//43 36//43 48//43 46//43
f 36//44 35//44 47//44 48//44
f 50//45 52//45 56//45 54//45
f 46//46 48//46 52//46 50//46
f 48//47 47//47 51//47 52//47
f 45//48 46//48 50//48 49//48
f 56//49 55//49 59//49 60//49
f 52//50 51//50 55//50 56//50
f 49//51 50//51 54//51 53//51
f 51//52 49//52 53//52 55//52
f 59//53 57//53 61//53 63//53
f 53//54 54//54 58//54 57//54
f 55//55 53//55 57//55 59//55
f 54//56 56//56 60//56 58//56
f 62//57 64//57 63//57 61//57
f 58//58 60//58 64//58 62//58
f 60//59 59//59 63//59 64//59
f 57//60 58//60 62//60 61//60
