# Blender v2.78 (sub 0) OBJ File: ''
# www.blender.org
mtllib arm_left_lower.mtl
o left_arm_lower_Cube.024
v 0.898368 4.218286 0.059796
v 0.878058 4.248343 0.037420
v 0.900754 4.186602 -0.004793
v 0.880034 4.222095 -0.016087
v 0.830460 4.195960 0.068241
v 0.824972 4.223232 0.047778
v 0.832845 4.164276 0.003652
v 0.826948 4.196985 -0.005730
v 0.911602 3.853530 0.246437
v 0.911602 3.838036 0.212599
v 0.874385 3.853530 0.246437
v 0.874385 3.838036 0.212599
v 0.900465 4.244383 0.059039
v 0.903562 4.203247 -0.024821
v 0.817645 4.169561 -0.011470
v 0.814548 4.210698 0.072390
v 0.894036 4.162685 0.074020
v 0.847953 4.147535 0.079750
v 0.849572 4.126034 0.035919
v 0.895655 4.141185 0.030189
v 0.907828 3.581692 0.379555
v 0.907828 3.559990 0.340153
v 0.862845 3.581692 0.379555
v 0.862845 3.559990 0.340153
v 0.906692 3.459991 0.442172
v 0.906692 3.426114 0.361419
v 0.836471 3.459991 0.442172
v 0.836471 3.426114 0.361419
v 0.917582 3.419574 0.500399
v 0.917582 3.367028 0.375142
v 0.808663 3.419574 0.500399
v 0.808663 3.367028 0.375142
v 0.917582 3.376174 0.531781
v 0.917582 3.323628 0.406525
v 0.808663 3.376174 0.531781
v 0.808663 3.323628 0.406525
v 0.887031 3.326504 0.521907
v 0.887031 3.303435 0.466917
v 0.839213 3.326504 0.521907
v 0.839213 3.303435 0.466917
v 0.844346 4.138451 0.055902
v 0.831473 4.211571 0.019977
v 0.844346 4.110312 -0.004590
v 0.831473 4.184895 -0.037371
v 0.777630 4.138451 0.055902
v 0.778176 4.242451 0.005613
v 0.777630 4.110312 -0.004590
v 0.778176 4.215775 -0.051735
v 0.855470 3.907834 0.142341
v 0.855470 3.885260 0.093811
v 0.801946 3.907834 0.142341
v 0.801946 3.885260 0.093811
v 0.848881 4.186173 0.058223
v 0.848881 4.139280 -0.042585
v 0.749461 4.175770 -0.059559
v 0.749461 4.222663 0.041249
v 0.845177 3.650532 0.249905
v 0.845177 3.632091 0.210260
v 0.801453 3.650532 0.249905
v 0.801453 3.632091 0.210260
v 0.834364 3.325480 0.459283
v 0.834364 3.310800 0.427725
v 0.799559 3.325480 0.459283
v 0.799559 3.310800 0.427725
vn 0.4943 0.7875 -0.3681
vn -0.2527 0.2172 -0.9428
vn -0.9125 0.3529 -0.2068
vn -0.3019 0.8705 0.3888
vn -0.0288 0.4883 0.8722
vn -0.4543 0.7930 -0.4058
vn 0.9999 -0.0111 0.0056
vn 0.0352 -0.5171 -0.8552
vn 0.9986 0.0523 -0.0041
vn -0.9968 -0.0781 0.0164
vn 0.1512 -0.0309 0.9880
vn -0.5907 -0.7328 0.3377
vn 0.2088 -0.7950 -0.5696
vn 0.9942 -0.0777 0.0748
vn -0.9426 -0.3124 0.1184
vn 0.9959 -0.0606 0.0665
vn 0.1047 -0.6142 -0.7822
vn 0.0400 0.2447 0.9688
vn 0.0000 0.4575 0.8892
vn 0.0000 0.4398 0.8981
vn 0.0000 -0.4170 -0.9089
vn -0.9993 0.0338 -0.0172
vn 0.0000 -0.2262 -0.9741
vn 0.0000 -0.1569 -0.9876
vn -0.9811 0.1758 -0.0813
vn 1.0000 -0.0077 0.0036
vn -1.0000 -0.0000 0.0000
vn -0.9067 0.3889 -0.1631
vn 0.9838 0.1652 -0.0693
vn 0.0000 0.8215 0.5702
vn 0.0000 -0.1950 0.9808
vn 1.0000 0.0000 0.0000
vn 0.0000 0.5860 0.8103
vn 0.0000 -0.5860 -0.8103
vn 0.0000 -0.9221 0.3868
vn 0.0000 -0.9484 -0.3171
vn -0.8086 -0.5426 0.2276
vn 0.8086 -0.5426 0.2276
vn 0.9138 0.3683 -0.1713
vn 0.2476 0.1138 -0.9621
vn -0.7541 0.5955 -0.2770
vn 0.2476 0.8092 0.5328
vn -0.9951 -0.0893 0.0416
vn 0.5385 0.7640 -0.3554
vn -1.0000 0.0016 -0.0007
vn 0.0000 0.3510 0.9364
vn 0.0000 -0.4006 -0.9162
vn 0.9990 0.0410 -0.0191
vn -0.0844 0.0777 0.9934
vn -0.9464 -0.2929 0.1362
vn -0.0844 -0.7097 -0.6994
vn 0.9943 -0.0967 0.0450
vn 0.0000 0.5415 0.8407
vn 0.9993 -0.0335 0.0156
vn 0.0000 0.3857 0.9226
vn 0.0000 -0.4179 -0.9085
vn 0.0000 -0.9067 0.4218
vn 0.0000 -0.5605 -0.8281
vn -1.0000 0.0045 -0.0021
vn 0.9996 -0.0256 0.0119
usemtl None
s off
f 13//1 14//1 4//1 2//1
f 14//2 15//2 8//2 4//2
f 15//3 16//3 6//3 8//3
f 16//4 13//4 2//4 6//4
f 18//5 11//5 9//5 17//5
f 8//6 6//6 2//6 4//6
f 9//7 21//7 22//7 10//7
f 20//8 10//8 12//8 19//8
f 17//9 9//9 10//9 20//9
f 19//10 12//10 11//10 18//10
f 5//11 1//11 13//11 16//11
f 7//12 5//12 16//12 15//12
f 3//13 7//13 15//13 14//13
f 1//14 3//14 14//14 13//14
f 7//15 19//15 18//15 5//15
f 1//16 17//16 20//16 3//16
f 3//17 20//17 19//17 7//17
f 5//18 18//18 17//18 1//18
f 23//19 27//19 25//19 21//19
f 11//20 23//20 21//20 9//20
f 10//21 22//21 24//21 12//21
f 12//22 24//22 23//22 11//22
f 26//23 30//23 32//23 28//23
f 22//24 26//24 28//24 24//24
f 24//25 28//25 27//25 23//25
f 21//26 25//26 26//26 22//26
f 32//27 36//27 35//27 31//27
f 28//28 32//28 31//28 27//28
f 25//29 29//29 30//29 26//29
f 27//30 31//30 29//30 25//30
f 35//31 39//31 37//31 33//31
f 29//32 33//32 34//32 30//32
f 31//33 35//33 33//33 29//33
f 30//34 34//34 36//34 32//34
f 38//35 37//35 39//35 40//35
f 34//36 38//36 40//36 36//36
f 36//37 40//37 39//37 35//37
f 33//38 37//38 38//38 34//38
f 53//39 54//39 44//39 42//39
f 54//40 55//40 48//40 44//40
f 55//41 56//41 46//41 48//41
f 56//42 53//42 42//42 46//42
f 47//43 52//43 51//43 45//43
f 48//44 46//44 42//44 44//44
f 52//45 60//45 59//45 51//45
f 45//46 51//46 49//46 41//46
f 43//47 50//47 52//47 47//47
f 41//48 49//48 50//48 43//48
f 45//49 41//49 53//49 56//49
f 47//50 45//50 56//50 55//50
f 43//51 47//51 55//51 54//51
f 41//52 43//52 54//52 53//52
f 59//53 63//53 61//53 57//53
f 49//54 57//54 58//54 50//54
f 51//55 59//55 57//55 49//55
f 50//56 58//56 60//56 52//56
f 62//57 61//57 63//57 64//57
f 58//58 62//58 64//58 60//58
f 60//59 64//59 63//59 59//59
f 57//60 61//60 62//60 58//60
