# Blender v2.78 (sub 0) OBJ File: ''
# www.blender.org
mtllib foot_left.mtl
o left_foot_Cube.029
v 0.371524 0.176993 0.060741
v 0.365512 0.277063 -0.007290
v 0.349756 0.073829 -0.263543
v 0.347150 0.238792 -0.211485
v 0.217685 0.181748 0.084114
v 0.211673 0.284900 0.016082
v 0.151430 0.073829 -0.233411
v 0.213904 0.242911 -0.191242
v 0.365227 0.073829 0.015158
v 0.361860 0.303057 -0.081370
v 0.195704 0.073829 0.040914
v 0.192337 0.308296 -0.055615
v 0.359066 0.233142 -0.010373
v 0.356083 0.169624 -0.017098
v 0.384822 0.225786 0.047688
v 0.381839 0.162268 0.040964
v 0.417516 0.233142 -0.036301
v 0.414533 0.169624 -0.043026
v 0.443272 0.225786 0.021760
v 0.440289 0.162268 0.015036
v 0.450573 0.154065 0.179963
v 0.448194 0.099774 0.174598
v 0.497198 0.154065 0.159280
v 0.494819 0.099774 0.153916
v 0.510337 0.087432 0.288679
v 0.508941 0.054239 0.285533
v 0.537680 0.087432 0.276550
v 0.536285 0.054239 0.273404
v 0.559147 0.055205 0.386964
v 0.558196 0.034956 0.384821
v 0.577780 0.055205 0.378699
v 0.576829 0.034956 0.376555
v 0.542021 0.077722 0.292702
v 0.540866 0.053137 0.290100
v 0.519398 0.077722 0.302738
v 0.518243 0.053137 0.300135
v 0.503363 0.065557 0.266789
v 0.504525 0.090301 0.269409
v 0.527295 0.090301 0.259308
v 0.526133 0.065557 0.256688
v 0.461136 0.138608 0.193031
v 0.497824 0.096594 0.171433
v 0.459163 0.096594 0.188583
v 0.499797 0.138608 0.175881
v 0.485104 0.158034 0.139395
v 0.483004 0.113312 0.134661
v 0.443950 0.158034 0.157651
v 0.441849 0.113312 0.152916
v 0.320915 0.233210 -0.018965
v 0.323922 0.178769 -0.028074
v 0.340953 0.237715 0.030890
v 0.336544 0.165722 0.021636
v 0.374061 0.238529 -0.033212
v 0.377068 0.184088 -0.042321
v 0.411559 0.235611 0.013616
v 0.407151 0.163619 0.004363
v 0.398209 0.199623 0.186644
v 0.394121 0.145945 0.179992
v 0.450881 0.197188 0.173919
v 0.446793 0.143511 0.167266
v 0.443251 0.114224 0.378535
v 0.436773 0.071177 0.373402
v 0.485171 0.109327 0.366700
v 0.478693 0.066280 0.361567
v 0.492457 0.076415 0.554941
v 0.489792 0.049151 0.551364
v 0.519024 0.074789 0.547541
v 0.516360 0.047525 0.543965
v 0.454430 0.103674 0.404605
v 0.485834 0.100190 0.395751
v 0.481161 0.067945 0.391865
v 0.449758 0.071429 0.400719
v 0.472029 0.116350 0.338321
v 0.467863 0.085901 0.334664
v 0.442335 0.119432 0.346481
v 0.438168 0.088983 0.342824
v 0.445107 0.138434 0.205753
v 0.410963 0.140275 0.214153
v 0.448043 0.173257 0.210051
v 0.413900 0.175098 0.218451
v 0.437886 0.199538 0.143886
v 0.434492 0.152772 0.138038
v 0.392001 0.201478 0.155005
v 0.388607 0.154712 0.149157
v 0.343904 0.197280 0.001141
v 0.348808 0.257318 0.012912
v 0.327332 0.216629 -0.032385
v 0.330450 0.254808 -0.024900
v 0.283579 0.200057 0.012109
v 0.288483 0.260096 0.023879
v 0.288970 0.218395 -0.025411
v 0.292089 0.256574 -0.017926
v 0.399038 0.124407 0.252667
v 0.402746 0.169793 0.261565
v 0.353436 0.126507 0.260957
v 0.357143 0.171893 0.269855
v 0.418081 0.047777 0.414460
v 0.420635 0.079043 0.420590
v 0.386665 0.049224 0.420171
v 0.389219 0.080491 0.426301
v 0.447029 0.013616 0.623232
v 0.448946 0.037079 0.627833
v 0.423452 0.014701 0.627519
v 0.425369 0.038165 0.632119
v 0.394377 0.049239 0.441185
v 0.417615 0.048169 0.436960
v 0.419505 0.071295 0.441494
v 0.396266 0.072365 0.445719
v 0.386329 0.063604 0.398276
v 0.411849 0.062429 0.393636
v 0.413924 0.087827 0.398615
v 0.388404 0.089002 0.403255
v 0.398384 0.118207 0.274323
v 0.401405 0.155192 0.281574
v 0.364244 0.156903 0.288330
v 0.361222 0.119918 0.281079
v 0.391952 0.173230 0.237691
v 0.355354 0.174915 0.244345
v 0.352378 0.138491 0.237204
v 0.388977 0.136806 0.230551
v 0.286097 0.199599 -0.032501
v 0.299039 0.174124 0.054788
v 0.292322 0.256315 -0.016302
v 0.305264 0.230841 0.070987
v 0.227630 0.203380 -0.023267
v 0.240573 0.177905 0.064022
v 0.233856 0.260096 -0.007069
v 0.246798 0.234621 0.080220
v 0.321490 0.116483 0.270488
v 0.326249 0.159842 0.282871
v 0.276793 0.119373 0.277547
v 0.281552 0.162732 0.289930
v 0.352914 0.017833 0.600158
v 0.355302 0.039584 0.606370
v 0.330493 0.019282 0.603699
v 0.332880 0.041033 0.609911
v 0.303844 0.093983 0.431916
v 0.299969 0.054988 0.422292
v 0.334786 0.052737 0.416793
v 0.338661 0.091732 0.426417
v 0.311712 0.076803 0.464703
v 0.335783 0.048928 0.452985
v 0.308844 0.050670 0.457240
v 0.338652 0.075061 0.460449
v 0.300076 0.069991 0.396848
v 0.332048 0.096153 0.400290
v 0.303153 0.098021 0.404854
v 0.328971 0.068122 0.392285
v 0.287896 0.110394 0.309571
v 0.322823 0.138974 0.313331
v 0.291257 0.141015 0.318317
v 0.319462 0.108354 0.304586
v 0.316141 0.166712 0.245785
v 0.280836 0.168995 0.251361
v 0.277077 0.134747 0.241580
v 0.312382 0.132464 0.236004
v 0.269520 0.191507 0.243174
v 0.259148 0.259921 0.050484
v 0.266066 0.102904 0.251024
v 0.255599 0.168880 0.058549
v 0.207568 0.185963 0.241452
v 0.193661 0.250130 0.049017
v 0.204115 0.097359 0.249301
v 0.190112 0.159090 0.057082
v 0.273386 0.098289 0.381362
v 0.271125 0.040297 0.386500
v 0.212332 0.092824 0.379665
v 0.210071 0.034832 0.384802
v 0.252567 0.048300 0.535744
v 0.251191 0.013011 0.538870
v 0.222412 0.047222 0.534759
v 0.221037 0.011933 0.537886
v 0.265029 0.085407 0.405196
v 0.218674 0.081461 0.403889
v 0.216925 0.036597 0.407864
v 0.263280 0.040542 0.409171
v 0.216424 0.055512 0.357351
v 0.263170 0.059696 0.358651
v 0.265077 0.108620 0.354317
v 0.218331 0.104436 0.353017
v 0.260812 0.097164 0.279404
v 0.263352 0.162339 0.273630
v 0.212407 0.092832 0.278058
v 0.214948 0.158007 0.272284
v 0.261119 0.192168 0.214275
v 0.258367 0.121565 0.220530
v 0.208779 0.116649 0.219194
v 0.211531 0.187252 0.212940
vn 0.9972 0.0067 -0.0747
vn -0.1401 0.2920 -0.9461
vn -0.9578 0.1040 0.2679
vn 0.1470 0.5563 0.8179
vn 0.1320 -0.3993 0.9073
vn 0.0851 0.9477 0.3077
vn -0.0389 0.8977 -0.4390
vn 0.0000 -1.0000 -0.0000
vn -0.9884 0.1489 0.0310
vn 0.9970 -0.0098 -0.0765
vn 0.9141 0.0000 -0.4055
vn -0.8561 -0.0140 0.5167
vn -0.9141 -0.0000 0.4055
vn 0.4028 -0.1150 0.9080
vn -0.0466 -0.9934 -0.1052
vn 0.0466 0.9934 0.1052
vn 0.9565 -0.0132 -0.2915
vn -0.0687 -0.9855 -0.1549
vn 0.2098 0.8558 0.4729
vn 0.9576 -0.0140 -0.2878
vn -0.9231 0.0026 0.3845
vn -0.8580 -0.0132 0.5134
vn -0.0577 -0.9898 -0.1300
vn 0.2044 0.8637 0.4607
vn -0.4028 0.1150 -0.9080
vn -0.0953 -0.9720 -0.2149
vn 0.0773 0.9817 0.1743
vn 0.9046 0.0026 -0.4262
vn 0.8446 0.0160 -0.5351
vn 0.0260 0.9979 0.0587
vn -0.2054 -0.8622 -0.4631
vn -0.9636 0.0160 0.2670
vn 0.1330 0.9447 0.2998
vn -0.1961 -0.8752 -0.4421
vn -0.9478 0.0108 0.3186
vn 0.8724 0.0108 -0.4888
vn 0.7910 0.0265 -0.6113
vn -0.9840 0.0265 0.1761
vn -0.2797 -0.7241 -0.6304
vn 0.0736 0.9834 0.1659
vn 0.8828 0.0083 -0.4696
vn 0.1462 0.9328 0.3295
vn -0.1938 -0.8784 -0.4370
vn -0.9407 0.0083 0.3393
vn 0.9505 0.0343 -0.3089
vn -0.9182 0.0192 0.3957
vn -0.8170 -0.0740 0.5719
vn 0.2697 -0.1444 0.9521
vn 0.0262 -0.9997 0.0008
vn 0.0534 0.9503 0.3067
vn -0.9001 0.0791 0.4284
vn -0.0565 -0.9971 -0.0504
vn 0.1049 0.9606 0.2572
vn 0.9801 -0.0491 -0.1922
vn -0.1262 -0.9819 -0.1414
vn -0.1537 -0.9748 -0.1615
vn 0.2333 0.8320 0.5034
vn 0.9895 -0.1381 -0.0432
vn -0.2567 0.1503 -0.9547
vn 0.1178 0.9869 0.1099
vn 0.9609 -0.0855 -0.2633
vn -0.9686 0.0904 0.2316
vn -0.9880 0.1380 0.0695
vn 0.9018 -0.0827 -0.4241
vn 0.0969 0.9935 -0.0590
vn -0.1900 -0.9368 -0.2938
vn 0.9675 -0.0759 -0.2413
vn 0.1602 0.9259 0.3421
vn -0.1660 -0.9149 -0.3679
vn -0.9741 0.0803 0.2112
vn -0.9962 0.0826 -0.0283
vn -0.1740 -0.8170 -0.5498
vn 0.0802 0.9883 0.1295
vn 0.8939 -0.0155 -0.4480
vn 0.9244 -0.0123 -0.3811
vn 0.0511 0.9964 0.0678
vn -0.0934 -0.9648 -0.2458
vn -0.9779 0.0381 0.2056
vn 0.8992 0.0123 -0.4374
vn -0.1661 0.2028 -0.9650
vn -0.9906 0.0993 -0.0938
vn 0.0662 0.9914 0.1128
vn -0.1225 -0.8846 -0.4500
vn 0.0311 0.9962 -0.0812
vn -0.1368 -0.8290 -0.5423
vn -0.9948 0.0660 0.0776
vn 0.9115 0.0062 -0.4112
vn -0.1214 -0.8884 -0.4428
vn -0.0762 -0.9825 -0.1702
vn 0.9540 -0.0193 -0.2991
vn 0.1051 0.9341 0.3413
vn -0.9957 0.0694 0.0608
vn 0.1661 -0.2028 0.9650
vn 0.9852 -0.0482 -0.1645
vn 0.0759 0.9828 0.1685
vn -0.9855 0.0486 0.1628
vn -0.9387 0.0091 0.3445
vn 0.1066 0.9304 0.3506
vn 0.9961 -0.0857 0.0221
vn -0.0430 -0.9989 0.0165
vn -0.9736 0.0353 0.2255
vn 0.1279 0.8654 0.4844
vn 0.9891 -0.0540 -0.1369
vn -0.1162 -0.9047 -0.4098
vn -0.0943 -0.9563 -0.2766
vn 0.9966 -0.0827 0.0064
vn 0.1438 0.7948 0.5896
vn -0.9320 0.0051 0.3623
vn -0.0878 -0.9674 -0.2378
vn 0.9784 -0.0402 -0.2028
vn -0.9546 0.0197 0.2972
vn 0.1034 0.9379 0.3310
vn 0.9846 -0.0613 -0.1639
vn 0.1038 0.9588 0.2644
vn -0.9846 0.0613 0.1639
vn -0.1038 -0.9588 -0.2644
vn -0.1315 0.2856 -0.9493
vn 0.0885 0.9835 0.1581
vn -0.9853 0.0627 0.1591
vn -0.9945 0.0993 0.0346
vn 0.9630 -0.0292 -0.2679
vn -0.1207 -0.9125 -0.3910
vn 0.1315 -0.2855 0.9493
vn 0.9889 -0.0714 -0.1302
vn -0.0940 -0.9762 -0.1953
vn 0.0981 0.9695 0.2245
vn 0.0866 0.9857 0.1449
vn -0.1347 -0.8533 -0.5037
vn 0.9674 -0.0343 -0.2509
vn -0.9948 0.0915 0.0443
vn 0.1265 0.8908 0.4364
vn -0.0803 -0.9915 -0.1021
vn 0.9949 -0.0923 -0.0409
vn -0.9676 0.0346 0.2501
vn -0.9843 0.0608 0.1655
vn 0.9879 -0.0688 -0.1387
vn -0.1223 -0.9071 -0.4028
vn 0.1254 0.8953 0.4275
vn 0.1424 0.8090 0.5703
vn -0.0998 -0.9665 -0.2364
vn 0.9926 -0.1178 0.0309
vn -0.9440 0.0094 0.3299
vn -0.0970 -0.9715 -0.2162
vn 0.9923 -0.0826 -0.0921
vn -0.9762 0.0466 0.2120
vn 0.1135 0.9350 0.3360
vn 0.9987 -0.0415 -0.0292
vn 0.1285 -0.9535 -0.2726
vn -0.9906 0.0499 0.1271
vn -0.1265 0.9188 0.3739
vn 0.0884 -0.8053 -0.5862
vn 0.0357 -0.0896 -0.9953
vn -0.0710 0.9629 0.2604
vn 0.9467 -0.0649 -0.3156
vn -0.9772 0.0193 -0.2116
vn -0.0929 0.9203 0.3801
vn -0.0357 0.0896 0.9953
vn 0.0701 -0.9784 -0.1945
vn -0.9983 0.0424 0.0396
vn 0.9958 -0.0312 0.0862
vn 0.9450 -0.0079 0.3271
vn -0.9580 0.0621 0.2799
vn 0.0859 -0.9953 0.0456
vn -0.0905 0.8907 0.4455
vn -0.0895 0.8282 0.5533
vn -0.9964 0.0452 0.0718
vn 0.9978 -0.0433 -0.0502
vn 0.0924 -0.8991 -0.4278
vn 0.0927 -0.9791 -0.1809
vn 0.9838 -0.0226 0.1776
vn -0.9563 0.0626 0.2856
vn -0.0841 0.7281 0.6803
vn -0.0944 0.9947 0.0411
vn -0.9903 0.0265 -0.1364
vn 0.0935 -0.8417 -0.5318
vn 0.9580 -0.0621 -0.2799
usemtl None
s off
f 9//1 3//1 4//1 10//1
f 3//2 7//2 8//2 4//2
f 11//3 5//3 6//3 12//3
f 5//4 1//4 2//4 6//4
f 9//5 1//5 5//5 11//5
f 12//6 6//6 2//6 10//6
f 8//7 12//7 10//7 4//7
f 3//8 9//8 11//8 7//8
f 7//9 11//9 12//9 8//9
f 1//10 9//10 10//10 2//10
f 13//11 15//11 16//11 14//11
f 46//12 24//12 23//12 45//12
f 19//13 17//13 18//13 20//13
f 17//14 13//14 14//14 18//14
f 15//15 13//15 17//15 19//15
f 20//16 18//16 14//16 16//16
f 38//17 25//17 26//17 37//17
f 45//18 23//18 21//18 47//18
f 48//19 22//19 24//19 46//19
f 47//20 21//20 22//20 48//20
f 34//21 32//21 31//21 33//21
f 40//22 28//22 27//22 39//22
f 39//23 27//23 25//23 38//23
f 37//24 26//24 28//24 40//24
f 29//25 31//25 32//25 30//25
f 33//26 31//26 29//26 35//26
f 36//27 30//27 32//27 34//27
f 35//28 29//28 30//28 36//28
f 25//29 35//29 36//29 26//29
f 26//30 36//30 34//30 28//30
f 27//31 33//31 35//31 25//31
f 28//32 34//32 33//32 27//32
f 43//33 37//33 40//33 42//33
f 44//34 39//34 38//34 41//34
f 42//35 40//35 39//35 44//35
f 41//36 38//36 37//36 43//36
f 21//37 41//37 43//37 22//37
f 24//38 42//38 44//38 23//38
f 23//39 44//39 41//39 21//39
f 22//40 43//40 42//40 24//40
f 15//41 47//41 48//41 16//41
f 16//42 48//42 46//42 20//42
f 19//43 45//43 47//43 15//43
f 20//44 46//44 45//44 19//44
f 49//45 51//45 52//45 50//45
f 82//46 60//46 59//46 81//46
f 55//47 53//47 54//47 56//47
f 53//48 49//48 50//48 54//48
f 51//49 49//49 53//49 55//49
f 56//50 54//50 50//50 52//50
f 74//51 64//51 63//51 73//51
f 81//52 59//52 57//52 83//52
f 84//53 58//53 60//53 82//53
f 83//54 57//54 58//54 84//54
f 70//55 67//55 65//55 69//55
f 73//56 63//56 61//56 75//56
f 76//57 62//57 64//57 74//57
f 75//58 61//58 62//58 76//58
f 65//59 67//59 68//59 66//59
f 72//60 66//60 68//60 71//60
f 69//61 65//61 66//61 72//61
f 71//62 68//62 67//62 70//62
f 64//63 71//63 70//63 63//63
f 61//64 69//64 72//64 62//64
f 62//65 72//65 71//65 64//65
f 63//66 70//66 69//66 61//66
f 80//67 75//67 76//67 78//67
f 78//68 76//68 74//68 77//68
f 79//69 73//69 75//69 80//69
f 77//70 74//70 73//70 79//70
f 60//71 77//71 79//71 59//71
f 59//72 79//72 80//72 57//72
f 58//73 78//73 77//73 60//73
f 57//74 80//74 78//74 58//74
f 51//75 83//75 84//75 52//75
f 52//76 84//76 82//76 56//76
f 55//77 81//77 83//77 51//77
f 56//78 82//78 81//78 55//78
f 85//79 87//79 88//79 86//79
f 87//80 91//80 92//80 88//80
f 91//81 89//81 90//81 92//81
f 118//82 96//82 94//82 117//82
f 87//83 85//83 89//83 91//83
f 92//84 90//84 86//84 88//84
f 110//85 97//85 99//85 109//85
f 119//86 95//86 96//86 118//86
f 117//87 94//87 93//87 120//87
f 120//88 93//88 95//88 119//88
f 106//89 101//89 103//89 105//89
f 111//90 98//90 97//90 110//90
f 112//91 100//91 98//91 111//91
f 109//92 99//92 100//92 112//92
f 103//93 101//93 102//93 104//93
f 107//94 102//94 101//94 106//94
f 108//95 104//95 102//95 107//95
f 105//96 103//96 104//96 108//96
f 99//97 105//97 108//97 100//97
f 100//98 108//98 107//98 98//98
f 98//99 107//99 106//99 97//99
f 97//100 106//100 105//100 99//100
f 116//101 109//101 112//101 115//101
f 115//102 112//102 111//102 114//102
f 114//103 111//103 110//103 113//103
f 113//104 110//104 109//104 116//104
f 93//105 113//105 116//105 95//105
f 94//106 114//106 113//106 93//106
f 96//107 115//107 114//107 94//107
f 95//108 116//108 115//108 96//108
f 85//109 120//109 119//109 89//109
f 86//110 117//110 120//110 85//110
f 89//111 119//111 118//111 90//111
f 90//112 118//112 117//112 86//112
f 121//113 123//113 124//113 122//113
f 123//114 127//114 128//114 124//114
f 127//115 125//115 126//115 128//115
f 125//116 121//116 122//116 126//116
f 123//117 121//117 125//117 127//117
f 154//118 132//118 130//118 153//118
f 143//119 135//119 136//119 141//119
f 155//120 131//120 132//120 154//120
f 153//121 130//121 129//121 156//121
f 156//122 129//122 131//122 155//122
f 136//123 135//123 133//123 134//123
f 144//124 134//124 133//124 142//124
f 142//125 133//125 135//125 143//125
f 141//126 136//126 134//126 144//126
f 147//127 137//127 140//127 146//127
f 148//128 139//128 138//128 145//128
f 146//129 140//129 139//129 148//129
f 145//130 138//130 137//130 147//130
f 137//131 141//131 144//131 140//131
f 139//132 142//132 143//132 138//132
f 140//133 144//133 142//133 139//133
f 138//134 143//134 141//134 137//134
f 149//135 145//135 147//135 151//135
f 150//136 146//136 148//136 152//136
f 152//137 148//137 145//137 149//137
f 151//138 147//138 146//138 150//138
f 132//139 151//139 150//139 130//139
f 129//140 152//140 149//140 131//140
f 130//141 150//141 152//141 129//141
f 131//142 149//142 151//142 132//142
f 122//143 156//143 155//143 126//143
f 124//144 153//144 156//144 122//144
f 126//145 155//145 154//145 128//145
f 128//146 154//146 153//146 124//146
f 185//147 186//147 160//147 158//147
f 186//148 187//148 164//148 160//148
f 187//149 188//149 162//149 164//149
f 188//150 185//150 158//150 162//150
f 178//151 166//151 168//151 177//151
f 164//152 162//152 158//152 160//152
f 174//153 171//153 169//153 173//153
f 179//154 165//154 166//154 178//154
f 177//155 168//155 167//155 180//155
f 180//156 167//156 165//156 179//156
f 170//157 169//157 171//157 172//157
f 176//158 170//158 172//158 175//158
f 175//159 172//159 171//159 174//159
f 173//160 169//160 170//160 176//160
f 165//161 173//161 176//161 166//161
f 168//162 175//162 174//162 167//162
f 166//163 176//163 175//163 168//163
f 167//164 174//164 173//164 165//164
f 184//165 180//165 179//165 182//165
f 183//166 177//166 180//166 184//166
f 182//167 179//167 178//167 181//167
f 181//168 178//168 177//168 183//168
f 159//169 181//169 183//169 163//169
f 157//170 182//170 181//170 159//170
f 163//171 183//171 184//171 161//171
f 161//172 184//172 182//172 157//172
f 161//173 157//173 185//173 188//173
f 163//174 161//174 188//174 187//174
f 159//175 163//175 187//175 186//175
f 157//176 159//176 186//176 185//176
