# Blender v2.78 (sub 0) OBJ File: ''
# www.blender.org
mtllib hand_left.mtl
o left_hand_Cube.025
v 0.921440 3.331487 0.413519
v 0.932700 3.254019 0.429739
v 0.921440 3.362555 0.486068
v 0.932700 3.297359 0.530943
v 0.767270 3.331487 0.413519
v 0.717635 3.254019 0.429739
v 0.767270 3.362555 0.486068
v 0.717635 3.297359 0.530943
v 0.894088 3.232634 0.464280
v 0.894088 3.257602 0.522585
v 0.770187 3.232634 0.464280
v 0.770187 3.257602 0.522585
v 0.768999 3.246004 0.464814
v 0.729923 3.214580 0.478271
v 0.768999 3.266443 0.512540
v 0.729923 3.235018 0.525997
v 0.734815 3.281925 0.449431
v 0.695738 3.250501 0.462888
v 0.734815 3.302363 0.497157
v 0.695739 3.270939 0.510614
v 0.664230 3.162567 0.509539
v 0.664230 3.176496 0.542065
v 0.633188 3.178177 0.502854
v 0.633188 3.192106 0.535380
v 0.609938 3.084015 0.543178
v 0.609938 3.097944 0.575704
v 0.582188 3.104194 0.534537
v 0.582188 3.118123 0.567063
v 0.557878 3.031507 0.580002
v 0.557878 3.035059 0.588297
v 0.549903 3.035387 0.578340
v 0.549903 3.038939 0.586635
v 0.579097 3.102201 0.568356
v 0.579097 3.092271 0.545168
v 0.599124 3.078227 0.551182
v 0.599124 3.088157 0.574370
v 0.593730 3.115966 0.533608
v 0.615983 3.100698 0.540146
v 0.615983 3.111651 0.565722
v 0.593730 3.126918 0.559184
v 0.648779 3.149662 0.519955
v 0.626063 3.172304 0.538970
v 0.626063 3.161914 0.514708
v 0.648779 3.160052 0.544217
v 0.675370 3.178027 0.505570
v 0.675370 3.190037 0.533615
v 0.650581 3.193748 0.498838
v 0.650581 3.205758 0.526882
v 0.709091 3.222035 0.522361
v 0.684878 3.244931 0.512557
v 0.709091 3.208252 0.490176
v 0.684878 3.231148 0.480371
v 0.812538 3.236920 0.462951
v 0.799743 3.182596 0.486214
v 0.812538 3.261522 0.520401
v 0.799743 3.207199 0.543664
v 0.751365 3.248682 0.457914
v 0.738570 3.194358 0.481177
v 0.751365 3.273284 0.515364
v 0.738570 3.218961 0.538627
v 0.757523 3.035790 0.556021
v 0.757523 3.055371 0.601745
v 0.708837 3.045152 0.552012
v 0.708837 3.064733 0.597736
v 0.719895 2.930005 0.605657
v 0.719895 2.946449 0.644056
v 0.678660 2.936136 0.603031
v 0.678660 2.952580 0.641430
v 0.696566 2.861451 0.641740
v 0.696566 2.873027 0.668773
v 0.667537 2.865767 0.639892
v 0.667537 2.877344 0.666924
v 0.674430 2.808161 0.673816
v 0.674430 2.813039 0.685207
v 0.662197 2.809980 0.673037
v 0.662197 2.814858 0.684428
v 0.785396 3.154954 0.505584
v 0.785396 3.174105 0.550305
v 0.737777 3.164110 0.501663
v 0.737777 3.183261 0.546384
v 0.760745 3.068002 0.546584
v 0.719899 3.075856 0.543221
v 0.760745 3.084430 0.584944
v 0.719899 3.092283 0.581580
v 0.705664 3.015639 0.571772
v 0.741611 3.009117 0.574565
v 0.741611 3.023544 0.608254
v 0.705664 3.030066 0.605461
v 0.691085 2.960708 0.598238
v 0.721869 2.968158 0.629030
v 0.721869 2.955861 0.600314
v 0.691085 2.973006 0.626954
v 0.679763 2.925128 0.645704
v 0.679763 2.914100 0.619951
v 0.707418 2.909988 0.621712
v 0.707418 2.921016 0.647465
v 0.674165 2.891029 0.657801
v 0.697272 2.878378 0.637754
v 0.674165 2.881814 0.636283
v 0.697272 2.887593 0.659272
v 0.668737 2.853740 0.649792
v 0.689146 2.850706 0.651092
v 0.689146 2.858845 0.670096
v 0.668737 2.861879 0.668797
v 0.856532 3.242170 0.462638
v 0.854088 3.188037 0.485819
v 0.856532 3.265372 0.516817
v 0.854088 3.211239 0.539999
v 0.797644 3.244416 0.461675
v 0.795200 3.190284 0.484857
v 0.797644 3.267618 0.515855
v 0.795200 3.213486 0.539037
v 0.829274 3.031860 0.558943
v 0.829274 3.050544 0.602573
v 0.781853 3.033670 0.558169
v 0.781853 3.052354 0.601798
v 0.819261 2.901881 0.617554
v 0.819261 2.918431 0.656200
v 0.777257 2.903484 0.616868
v 0.777257 2.920034 0.655514
v 0.811382 2.807458 0.661853
v 0.811382 2.821213 0.693971
v 0.776472 2.808790 0.661282
v 0.776472 2.822545 0.693401
v 0.796438 2.754685 0.697755
v 0.796438 2.758811 0.707392
v 0.785964 2.755084 0.697584
v 0.785964 2.759211 0.707220
v 0.781476 2.798428 0.671799
v 0.805218 2.797522 0.672187
v 0.805218 2.806876 0.694031
v 0.781476 2.807782 0.693643
v 0.780510 2.836712 0.683704
v 0.780510 2.825584 0.657720
v 0.808753 2.824507 0.658181
v 0.808753 2.835634 0.684166
v 0.783498 2.887730 0.631308
v 0.811371 2.897649 0.657407
v 0.783498 2.898712 0.656952
v 0.811371 2.886667 0.631763
v 0.782088 2.923704 0.612324
v 0.816533 2.922390 0.612887
v 0.816533 2.935961 0.644578
v 0.782088 2.937275 0.644015
v 0.821587 3.015103 0.573300
v 0.787357 3.029896 0.604234
v 0.787357 3.016409 0.572741
v 0.821587 3.028590 0.604793
v 0.826798 3.059481 0.553115
v 0.826798 3.073822 0.586603
v 0.790400 3.060870 0.552521
v 0.790400 3.075211 0.586009
v 0.841586 3.178348 0.544363
v 0.800556 3.179914 0.543692
v 0.841586 3.162182 0.506613
v 0.800556 3.163748 0.505943
v 0.899953 3.248644 0.463438
v 0.903380 3.200606 0.484010
v 0.899953 3.269260 0.511579
v 0.903380 3.221222 0.532151
v 0.847695 3.245493 0.464787
v 0.851122 3.197455 0.485359
v 0.847695 3.266109 0.512928
v 0.851122 3.218071 0.533501
v 0.903086 3.050413 0.548732
v 0.903086 3.070738 0.596192
v 0.851586 3.047056 0.550169
v 0.851586 3.067380 0.597630
v 0.907874 2.921523 0.607877
v 0.907874 2.938989 0.648663
v 0.863527 2.920275 0.608412
v 0.863527 2.937741 0.649197
v 0.897437 2.841790 0.650261
v 0.897437 2.853293 0.677123
v 0.868230 2.840968 0.650613
v 0.868230 2.852471 0.677475
v 0.886987 2.781081 0.685217
v 0.886987 2.786101 0.696939
v 0.874241 2.780722 0.685370
v 0.874241 2.785742 0.697093
v 0.898661 3.188417 0.541037
v 0.855876 3.185795 0.542160
v 0.855876 3.168915 0.502743
v 0.898661 3.171537 0.501620
v 0.897535 3.097017 0.578901
v 0.897535 3.081062 0.541644
v 0.857104 3.094414 0.580015
v 0.857104 3.078459 0.542758
v 0.858527 3.041515 0.602838
v 0.858527 3.025437 0.565295
v 0.899279 3.027843 0.564265
v 0.899279 3.043921 0.601808
v 0.867403 2.958328 0.634573
v 0.901066 2.946223 0.603107
v 0.867403 2.945066 0.603603
v 0.901066 2.959486 0.634077
v 0.869490 2.898270 0.625266
v 0.900181 2.899134 0.624897
v 0.900181 2.911221 0.653123
v 0.869490 2.910358 0.653492
v 0.869936 2.853890 0.646467
v 0.896592 2.865139 0.670661
v 0.896592 2.854640 0.646146
v 0.869936 2.864389 0.670983
v 0.872468 2.836620 0.679115
v 0.872468 2.828842 0.660953
v 0.892216 2.829398 0.660715
v 0.892216 2.837176 0.678877
v 0.927225 3.265767 0.459470
v 0.943714 3.226111 0.476452
v 0.927225 3.283947 0.501924
v 0.943714 3.244291 0.518907
v 0.884086 3.250609 0.465961
v 0.900575 3.210953 0.482944
v 0.884086 3.268790 0.508415
v 0.900575 3.229134 0.525398
v 0.976786 3.079271 0.540905
v 0.976786 3.096315 0.580707
v 0.934384 3.071212 0.544356
v 0.934384 3.088257 0.584158
v 0.995940 2.980540 0.587161
v 0.995940 2.994708 0.620244
v 0.960696 2.973842 0.590029
v 0.960696 2.988010 0.623113
v 1.006150 2.919314 0.616924
v 1.006150 2.930917 0.644019
v 0.977285 2.913829 0.619273
v 0.977285 2.925432 0.646368
v 0.998839 2.868982 0.648309
v 0.998839 2.873470 0.658789
v 0.987445 2.868621 0.648464
v 0.987445 2.873109 0.658944
v 0.949204 3.215544 0.524792
v 0.916905 3.204873 0.529362
v 0.916905 3.191343 0.497767
v 0.949204 3.202013 0.493197
v 0.967542 3.116397 0.566689
v 0.967542 3.103273 0.536044
v 0.935101 3.109545 0.569624
v 0.935101 3.096421 0.538978
v 0.943791 3.064662 0.589282
v 0.943791 3.051222 0.557897
v 0.977226 3.057576 0.555176
v 0.977226 3.071017 0.586561
v 0.960877 3.001345 0.613580
v 0.989240 2.995334 0.584647
v 0.960877 2.989944 0.586956
v 0.989240 3.006736 0.611272
v 0.971025 2.958021 0.603602
v 0.994029 2.962393 0.601730
v 0.994029 2.971641 0.623325
v 0.971025 2.967269 0.625197
v 0.979606 2.928592 0.618382
v 0.998691 2.939891 0.634744
v 0.998691 2.932219 0.616829
v 0.979606 2.936264 0.636297
v 0.983052 2.910527 0.646749
v 0.983052 2.903267 0.629798
v 1.001157 2.906340 0.628482
v 1.001157 2.913600 0.645433
vn 0.9896 0.1320 -0.0565
vn 0.0000 0.5670 0.8237
vn -0.8424 0.4953 -0.2121
vn 0.0000 -0.2049 -0.9788
vn 0.0000 0.9193 -0.3937
vn 0.6526 -0.6965 0.2983
vn 0.0000 -0.9193 0.3937
vn 0.0000 -0.8502 -0.5264
vn 0.0000 -0.2057 0.9786
vn -0.5347 -0.7768 0.3327
vn 0.6584 -0.6919 0.2963
vn 0.0000 0.3937 0.9193
vn -0.6584 0.6919 -0.2963
vn -0.0000 -0.3937 -0.9193
vn 0.7526 0.6053 -0.2592
vn 0.8168 -0.5303 0.2271
vn 0.1376 -0.2195 -0.9659
vn 0.0602 -0.3003 -0.9519
vn 0.0602 0.4817 0.8743
vn -0.6746 0.6786 -0.2906
vn -0.9130 0.3750 -0.1606
vn 0.1376 0.5476 0.8254
vn -0.6959 0.6601 -0.2827
vn 0.9392 -0.3157 0.1352
vn -0.4678 -0.8125 0.3479
vn 0.7963 -0.5561 0.2381
vn -0.0664 -0.4787 -0.8755
vn -0.0664 0.3033 0.9506
vn -0.2152 0.1149 0.9698
vn -0.2152 -0.6226 -0.7523
vn 0.6167 -0.7237 0.3099
vn -0.9798 0.1838 -0.0787
vn 0.8502 -0.4840 0.2073
vn -0.8381 0.5014 -0.2147
vn 0.0065 0.4026 0.9153
vn 0.0065 -0.3846 -0.9230
vn -0.1026 -0.5523 -0.8273
vn -0.1026 0.2177 0.9706
vn -0.9399 0.3139 -0.1344
vn 0.7185 -0.6393 0.2738
vn -0.7720 0.5844 -0.2502
vn -0.0288 0.3624 0.9316
vn -0.0288 -0.4242 -0.9051
vn 0.7084 -0.6488 0.2779
vn 0.4502 -0.8208 0.3515
vn -0.2494 -0.5798 -0.7756
vn -0.2494 0.1613 0.9549
vn -0.9153 0.3703 -0.1586
vn 0.9774 -0.1945 0.0833
vn -0.9774 0.1945 -0.0833
vn 0.2047 0.8998 -0.3853
vn 0.9954 -0.0885 0.0379
vn 0.0325 -0.2059 -0.9780
vn 0.0245 -0.2833 -0.9587
vn 0.0245 0.4984 0.8666
vn -0.9441 0.3030 -0.1298
vn -0.9253 0.3486 -0.1493
vn 0.0325 0.5658 0.8239
vn -0.8917 0.4161 -0.1782
vn 0.9971 -0.0699 0.0300
vn -0.0132 -0.4675 -0.8839
vn 0.9992 -0.0379 0.0162
vn 0.0277 -0.2302 -0.9727
vn 0.0277 0.5452 0.8379
vn -0.1597 -0.9075 0.3886
vn -0.0132 0.3171 0.9483
vn -0.9913 0.1207 -0.0517
vn 0.9562 -0.2692 0.1153
vn -0.9998 0.0203 -0.0087
vn -0.0394 0.2130 0.9763
vn -0.0394 -0.5596 -0.8278
vn 0.9172 -0.3662 0.1568
vn -0.9836 0.1658 -0.0710
vn -0.0071 0.3620 0.9321
vn -0.0071 -0.4248 -0.9052
vn 0.9686 -0.2285 0.0978
vn 0.8944 -0.4111 0.1761
vn -0.9959 0.0832 -0.0356
vn -0.0372 0.2194 0.9749
vn -0.0372 -0.5542 -0.8315
vn 0.9485 -0.2913 0.1247
vn -0.9725 0.2140 -0.0916
vn -0.0079 0.3540 0.9352
vn -0.0079 -0.4326 -0.9015
vn -0.0403 0.1521 0.9875
vn -0.0403 -0.6098 -0.7916
vn 0.8927 -0.4142 0.1774
vn -0.9992 -0.0376 0.0161
vn -0.0100 0.3358 0.9419
vn -0.0100 -0.4500 -0.8930
vn 0.9612 -0.2534 0.1085
vn -0.9882 0.1408 -0.0603
vn 0.8772 -0.4413 0.1890
vn -0.9968 -0.0736 0.0315
vn -0.0458 0.1166 0.9921
vn -0.0458 -0.6376 -0.7690
vn 0.9991 -0.0381 0.0163
vn -0.9991 0.0381 -0.0163
vn 0.0415 0.9185 -0.3933
vn 0.9960 0.0819 -0.0351
vn 0.0075 -0.2210 -0.9753
vn 0.0081 -0.2057 -0.9786
vn 0.0081 0.5663 0.8242
vn -0.9541 0.2753 -0.1179
vn -0.9724 0.2144 -0.0918
vn 0.0075 0.5534 0.8329
vn -0.9730 0.2121 -0.0908
vn 0.9914 0.1202 -0.0515
vn -0.0055 -0.5117 -0.8592
vn 0.9884 0.1396 -0.0598
vn 0.0080 -0.2093 -0.9778
vn 0.0080 0.5632 0.8263
vn -0.0414 -0.9185 0.3933
vn -0.0055 0.2687 0.9632
vn -0.9960 -0.0822 0.0352
vn 0.9846 -0.1607 0.0688
vn 0.9061 -0.3889 0.1665
vn -0.9390 -0.3161 0.1354
vn -0.0159 0.0110 0.9998
vn -0.0159 -0.7160 -0.6979
vn 0.0001 0.3962 0.9182
vn 0.0001 -0.3911 -0.9203
vn 0.9992 -0.0356 0.0152
vn -0.9990 0.0406 -0.0174
vn -0.9553 -0.2718 0.1164
vn 0.9275 -0.3436 0.1471
vn -0.0139 -0.6786 -0.7344
vn -0.0139 0.0632 0.9979
vn 0.9987 -0.0460 0.0197
vn -0.9986 0.0480 -0.0205
vn 0.0000 0.3946 0.9188
vn 0.0000 -0.3927 -0.9197
vn -0.0122 -0.6473 -0.7621
vn -0.0122 0.1049 0.9944
vn -0.9691 -0.2269 0.0972
vn 0.9394 -0.3153 0.1350
vn -0.9960 0.0824 -0.0353
vn -0.0008 0.3748 0.9271
vn -0.0009 -0.4124 -0.9110
vn 0.9915 -0.1196 0.0512
vn 0.9313 -0.3350 0.1434
vn -0.0110 -0.6234 -0.7818
vn -0.0110 0.1356 0.9907
vn -0.9868 -0.1486 0.0636
vn 0.9979 0.0602 -0.0258
vn -0.9979 -0.0602 0.0258
vn -0.0654 0.9173 -0.3928
vn -0.0123 0.5477 0.8366
vn -0.9879 0.1426 -0.0611
vn -0.9853 0.1572 -0.0673
vn 0.9843 0.1622 -0.0695
vn -0.0123 -0.2275 -0.9737
vn -0.0029 -0.3051 -0.9523
vn 0.9637 0.2453 -0.1051
vn -0.0071 -0.1904 -0.9817
vn -0.0071 0.5791 0.8152
vn -0.9995 -0.0303 0.0130
vn -0.0029 0.4787 0.8780
vn -0.9921 0.1152 -0.0493
vn 0.9980 0.0577 -0.0247
vn 0.0306 -0.9188 0.3935
vn 0.0020 -0.4524 -0.8918
vn 0.0020 0.3332 0.9428
vn 0.0093 -0.5191 -0.8546
vn 0.9903 -0.1277 0.0547
vn -0.9898 -0.1308 0.0560
vn 0.0093 0.2603 0.9655
vn 0.0008 -0.4046 -0.9145
vn 0.9999 -0.0105 0.0045
vn -0.9999 -0.0114 0.0049
vn 0.0008 0.3827 0.9239
vn 0.0136 0.2020 0.9793
vn 0.0136 -0.5694 -0.8220
vn 0.9901 -0.1290 0.0552
vn -0.9657 -0.2386 0.1022
vn 0.0021 0.3568 0.9342
vn 0.0021 -0.4299 -0.9029
vn 0.9998 0.0182 -0.0078
vn -0.9951 -0.0913 0.0391
vn 0.9625 -0.2495 0.1068
vn -0.9762 -0.1992 0.0853
vn 0.0075 0.1566 0.9876
vn 0.0075 -0.6068 -0.7948
vn 0.9974 -0.0668 0.0286
vn -1.0000 -0.0083 0.0036
vn 0.0013 0.3556 0.9346
vn 0.0013 -0.4310 -0.9023
vn 0.0090 0.1053 0.9944
vn 0.0090 -0.6470 -0.7624
vn 0.9477 -0.2934 0.1256
vn -0.9633 -0.2466 0.1056
vn 0.9341 0.3282 -0.1406
vn -0.9341 -0.3282 0.1406
vn -0.3570 0.8587 -0.3677
vn -0.0414 0.5617 0.8263
vn -0.9999 0.0104 -0.0045
vn -0.9996 0.0261 -0.0112
vn 0.9331 0.3306 -0.1416
vn -0.0414 -0.2104 -0.9767
vn -0.0718 -0.0488 -0.9962
vn 0.9087 0.3837 -0.1643
vn -0.0444 -0.1868 -0.9814
vn -0.0444 0.5814 0.8124
vn -0.9938 -0.1024 0.0439
vn -0.0718 0.6873 0.7228
vn -0.9864 0.1512 -0.0647
vn 0.8473 0.4882 -0.2091
vn 0.0345 -0.9187 0.3935
vn 0.9985 -0.0505 0.0216
vn 0.0109 -0.4712 -0.8820
vn 0.0109 0.3132 0.9496
vn 0.0709 -0.5605 -0.8251
vn 0.9822 0.1725 -0.0739
vn -0.8252 -0.5192 0.2223
vn 0.0709 0.2104 0.9750
vn 0.0014 -0.3979 -0.9174
vn 0.9858 0.1544 -0.0661
vn -0.9849 -0.1592 0.0682
vn 0.0014 0.3894 0.9211
vn 0.0363 0.2259 0.9735
vn 0.0363 -0.5487 -0.8352
vn 0.9999 0.0158 -0.0068
vn -0.9295 -0.3390 0.1452
vn 0.0075 0.3600 0.9329
vn 0.0075 -0.4268 -0.9043
vn 0.9851 0.1581 -0.0677
vn -0.9697 -0.2247 0.0962
vn 0.9964 -0.0781 0.0334
vn -0.8874 -0.4237 0.1814
vn 0.0563 0.1276 0.9902
vn 0.0564 -0.6287 -0.7756
vn 0.9906 0.1260 -0.0540
vn -0.9676 -0.2322 0.0994
vn 0.0119 0.3400 0.9404
vn 0.0119 -0.4460 -0.8950
vn 0.0673 0.0571 0.9961
vn 0.0673 -0.6815 -0.7287
vn 0.9570 -0.2666 0.1142
vn -0.9232 -0.3533 0.1513
usemtl None
s off
f 1//1 3//1 4//1 2//1
f 3//2 7//2 8//2 4//2
f 7//3 5//3 6//3 8//3
f 5//4 1//4 2//4 6//4
f 3//5 1//5 5//5 7//5
f 4//6 10//6 9//6 2//6
f 12//7 11//7 9//7 10//7
f 2//8 9//8 11//8 6//8
f 8//9 12//9 10//9 4//9
f 6//10 11//10 12//10 8//10
f 13//11 15//11 16//11 14//11
f 15//12 19//12 20//12 16//12
f 19//13 17//13 18//13 20//13
f 17//14 13//14 14//14 18//14
f 15//15 13//15 17//15 19//15
f 46//16 22//16 21//16 45//16
f 38//17 25//17 27//17 37//17
f 45//18 21//18 23//18 47//18
f 48//19 24//19 22//19 46//19
f 47//20 23//20 24//20 48//20
f 34//21 31//21 32//21 33//21
f 40//22 28//22 26//22 39//22
f 37//23 27//23 28//23 40//23
f 39//24 26//24 25//24 38//24
f 32//25 31//25 29//25 30//25
f 36//26 30//26 29//26 35//26
f 35//27 29//27 31//27 34//27
f 33//28 32//28 30//28 36//28
f 28//29 33//29 36//29 26//29
f 25//30 35//30 34//30 27//30
f 26//31 36//31 35//31 25//31
f 27//32 34//32 33//32 28//32
f 44//33 39//33 38//33 41//33
f 43//34 37//34 40//34 42//34
f 42//35 40//35 39//35 44//35
f 41//36 38//36 37//36 43//36
f 21//37 41//37 43//37 23//37
f 24//38 42//38 44//38 22//38
f 23//39 43//39 42//39 24//39
f 22//40 44//40 41//40 21//40
f 52//41 47//41 48//41 50//41
f 50//42 48//42 46//42 49//42
f 51//43 45//43 47//43 52//43
f 49//44 46//44 45//44 51//44
f 16//45 49//45 51//45 14//45
f 14//46 51//46 52//46 18//46
f 20//47 50//47 49//47 16//47
f 18//48 52//48 50//48 20//48
f 53//49 55//49 56//49 54//49
f 55//12 59//12 60//12 56//12
f 59//50 57//50 58//50 60//50
f 57//14 53//14 54//14 58//14
f 55//51 53//51 57//51 59//51
f 83//52 62//52 61//52 81//52
f 91//53 65//53 67//53 89//53
f 81//54 61//54 63//54 82//54
f 84//55 64//55 62//55 83//55
f 82//56 63//56 64//56 84//56
f 99//57 71//57 72//57 97//57
f 92//58 68//58 66//58 90//58
f 89//59 67//59 68//59 92//59
f 90//60 66//60 65//60 91//60
f 102//61 73//61 75//61 101//61
f 100//62 70//62 69//62 98//62
f 98//63 69//63 71//63 99//63
f 97//64 72//64 70//64 100//64
f 76//65 75//65 73//65 74//65
f 104//66 76//66 74//66 103//66
f 101//67 75//67 76//67 104//67
f 103//68 74//68 73//68 102//68
f 58//69 79//69 80//69 60//69
f 60//70 80//70 78//70 56//70
f 54//71 77//71 79//71 58//71
f 56//72 78//72 77//72 54//72
f 79//73 82//73 84//73 80//73
f 80//74 84//74 83//74 78//74
f 77//75 81//75 82//75 79//75
f 78//76 83//76 81//76 77//76
f 62//77 87//77 86//77 61//77
f 63//78 85//78 88//78 64//78
f 64//79 88//79 87//79 62//79
f 61//80 86//80 85//80 63//80
f 87//81 90//81 91//81 86//81
f 85//82 89//82 92//82 88//82
f 88//83 92//83 90//83 87//83
f 86//84 91//84 89//84 85//84
f 68//85 93//85 96//85 66//85
f 65//86 95//86 94//86 67//86
f 66//87 96//87 95//87 65//87
f 67//88 94//88 93//88 68//88
f 93//89 97//89 100//89 96//89
f 95//90 98//90 99//90 94//90
f 96//91 100//91 98//91 95//91
f 94//92 99//92 97//92 93//92
f 70//93 103//93 102//93 69//93
f 71//94 101//94 104//94 72//94
f 72//95 104//95 103//95 70//95
f 69//96 102//96 101//96 71//96
f 105//97 107//97 108//97 106//97
f 107//12 111//12 112//12 108//12
f 111//98 109//98 110//98 112//98
f 109//14 105//14 106//14 110//14
f 107//99 105//99 109//99 111//99
f 150//100 114//100 113//100 149//100
f 142//101 117//101 119//101 141//101
f 149//102 113//102 115//102 151//102
f 152//103 116//103 114//103 150//103
f 151//104 115//104 116//104 152//104
f 134//105 123//105 124//105 133//105
f 144//106 120//106 118//106 143//106
f 141//107 119//107 120//107 144//107
f 143//108 118//108 117//108 142//108
f 130//109 125//109 127//109 129//109
f 136//110 122//110 121//110 135//110
f 135//111 121//111 123//111 134//111
f 133//112 124//112 122//112 136//112
f 128//113 127//113 125//113 126//113
f 132//114 128//114 126//114 131//114
f 129//115 127//115 128//115 132//115
f 131//116 126//116 125//116 130//116
f 122//117 131//117 130//117 121//117
f 123//118 129//118 132//118 124//118
f 124//119 132//119 131//119 122//119
f 121//120 130//120 129//120 123//120
f 139//121 133//121 136//121 138//121
f 140//122 135//122 134//122 137//122
f 138//123 136//123 135//123 140//123
f 137//124 134//124 133//124 139//124
f 119//125 137//125 139//125 120//125
f 118//126 138//126 140//126 117//126
f 117//127 140//127 137//127 119//127
f 120//128 139//128 138//128 118//128
f 148//129 143//129 142//129 145//129
f 147//130 141//130 144//130 146//130
f 146//131 144//131 143//131 148//131
f 145//132 142//132 141//132 147//132
f 113//133 145//133 147//133 115//133
f 116//134 146//134 148//134 114//134
f 115//135 147//135 146//135 116//135
f 114//136 148//136 145//136 113//136
f 156//137 151//137 152//137 154//137
f 154//138 152//138 150//138 153//138
f 155//139 149//139 151//139 156//139
f 153//140 150//140 149//140 155//140
f 108//141 153//141 155//141 106//141
f 106//142 155//142 156//142 110//142
f 112//143 154//143 153//143 108//143
f 110//144 156//144 154//144 112//144
f 157//145 159//145 160//145 158//145
f 159//12 163//12 164//12 160//12
f 163//146 161//146 162//146 164//146
f 161//14 157//14 158//14 162//14
f 159//147 157//147 161//147 163//147
f 187//148 168//148 166//148 185//148
f 195//149 171//149 172//149 193//149
f 188//150 167//150 168//150 187//150
f 185//151 166//151 165//151 186//151
f 186//152 165//152 167//152 188//152
f 203//153 173//153 175//153 201//153
f 196//154 170//154 169//154 194//154
f 194//155 169//155 171//155 195//155
f 193//156 172//156 170//156 196//156
f 206//157 179//157 180//157 205//157
f 204//158 176//158 174//158 202//158
f 201//159 175//159 176//159 204//159
f 202//160 174//160 173//160 203//160
f 180//161 179//161 177//161 178//161
f 208//52 178//52 177//52 207//52
f 207//162 177//162 179//162 206//162
f 205//163 180//163 178//163 208//163
f 158//164 184//164 183//164 162//164
f 160//165 181//165 184//165 158//165
f 162//166 183//166 182//166 164//166
f 164//167 182//167 181//167 160//167
f 184//168 186//168 188//168 183//168
f 181//169 185//169 186//169 184//169
f 183//170 188//170 187//170 182//170
f 182//171 187//171 185//171 181//171
f 168//172 189//172 192//172 166//172
f 165//173 191//173 190//173 167//173
f 166//174 192//174 191//174 165//174
f 167//175 190//175 189//175 168//175
f 189//176 193//176 196//176 192//176
f 191//177 194//177 195//177 190//177
f 192//178 196//178 194//178 191//178
f 190//179 195//179 193//179 189//179
f 170//180 199//180 198//180 169//180
f 171//181 197//181 200//181 172//181
f 172//182 200//182 199//182 170//182
f 169//183 198//183 197//183 171//183
f 199//184 202//184 203//184 198//184
f 197//185 201//185 204//185 200//185
f 200//186 204//186 202//186 199//186
f 198//187 203//187 201//187 197//187
f 176//188 205//188 208//188 174//188
f 173//189 207//189 206//189 175//189
f 174//190 208//190 207//190 173//190
f 175//191 206//191 205//191 176//191
f 209//192 211//192 212//192 210//192
f 211//12 215//12 216//12 212//12
f 215//193 213//193 214//193 216//193
f 213//14 209//14 210//14 214//14
f 211//194 209//194 213//194 215//194
f 239//195 220//195 218//195 237//195
f 247//196 223//196 224//196 245//196
f 240//197 219//197 220//197 239//197
f 237//198 218//198 217//198 238//198
f 238//199 217//199 219//199 240//199
f 255//200 225//200 227//200 253//200
f 248//201 222//201 221//201 246//201
f 246//202 221//202 223//202 247//202
f 245//203 224//203 222//203 248//203
f 258//204 231//204 232//204 257//204
f 256//205 228//205 226//205 254//205
f 253//206 227//206 228//206 256//206
f 254//207 226//207 225//207 255//207
f 232//208 231//208 229//208 230//208
f 260//209 230//209 229//209 259//209
f 259//210 229//210 231//210 258//210
f 257//211 232//211 230//211 260//211
f 210//212 236//212 235//212 214//212
f 212//213 233//213 236//213 210//213
f 214//214 235//214 234//214 216//214
f 216//215 234//215 233//215 212//215
f 236//216 238//216 240//216 235//216
f 233//217 237//217 238//217 236//217
f 235//218 240//218 239//218 234//218
f 234//219 239//219 237//219 233//219
f 220//220 241//220 244//220 218//220
f 217//221 243//221 242//221 219//221
f 218//222 244//222 243//222 217//222
f 219//223 242//223 241//223 220//223
f 241//224 245//224 248//224 244//224
f 243//225 246//225 247//225 242//225
f 244//226 248//226 246//226 243//226
f 242//227 247//227 245//227 241//227
f 222//228 251//228 250//228 221//228
f 223//229 249//229 252//229 224//229
f 224//230 252//230 251//230 222//230
f 221//231 250//231 249//231 223//231
f 251//232 254//232 255//232 250//232
f 249//233 253//233 256//233 252//233
f 252//234 256//234 254//234 251//234
f 250//235 255//235 253//235 249//235
f 228//236 257//236 260//236 226//236
f 225//237 259//237 258//237 227//237
f 226//238 260//238 259//238 225//238
f 227//239 258//239 257//239 228//239
