# Blender v2.78 (sub 0) OBJ File: ''
# www.blender.org
mtllib hand_right.mtl
o Cube.013
v -0.921440 3.331487 0.413519
v -0.932700 3.254019 0.429739
v -0.921440 3.362556 0.486068
v -0.932700 3.297359 0.530943
v -0.767270 3.331487 0.413519
v -0.717635 3.254019 0.429739
v -0.767270 3.362556 0.486068
v -0.717635 3.297359 0.530943
v -0.894088 3.232634 0.464280
v -0.894088 3.257603 0.522585
v -0.770187 3.232634 0.464280
v -0.770187 3.257603 0.522585
vn -0.9896 0.1320 -0.0565
vn 0.0000 0.5670 0.8237
vn 0.8424 0.4953 -0.2121
vn 0.0000 -0.2049 -0.9788
vn 0.0000 0.9193 -0.3937
vn -0.6526 -0.6965 0.2983
vn 0.0000 -0.9193 0.3937
vn 0.0000 -0.8502 -0.5264
vn 0.0000 -0.2057 0.9786
vn 0.5347 -0.7768 0.3327
usemtl None
s off
f 1//1 2//1 4//1 3//1
f 3//2 4//2 8//2 7//2
f 7//3 8//3 6//3 5//3
f 5//4 6//4 2//4 1//4
f 3//5 7//5 5//5 1//5
f 4//6 2//6 9//6 10//6
f 12//7 10//7 9//7 11//7
f 2//8 6//8 11//8 9//8
f 8//9 4//9 10//9 12//9
f 6//10 8//10 12//10 11//10
o Cube.014
v -0.768999 3.246004 0.464814
v -0.729923 3.214580 0.478271
v -0.768999 3.266443 0.512540
v -0.729923 3.235018 0.525997
v -0.734815 3.281925 0.449431
v -0.695738 3.250501 0.462888
v -0.734815 3.302364 0.497157
v -0.695738 3.270939 0.510614
v -0.664230 3.162567 0.509539
v -0.664230 3.176496 0.542065
v -0.633188 3.178177 0.502854
v -0.633188 3.192106 0.535380
v -0.609938 3.084015 0.543178
v -0.609938 3.097944 0.575705
v -0.582188 3.104194 0.534537
v -0.582188 3.118123 0.567063
v -0.557878 3.031507 0.580002
v -0.557878 3.035059 0.588297
v -0.549903 3.035388 0.578340
v -0.549903 3.038939 0.586635
v -0.579097 3.102201 0.568356
v -0.579097 3.092271 0.545168
v -0.599124 3.078227 0.551182
v -0.599124 3.088157 0.574370
v -0.593730 3.115966 0.533608
v -0.615983 3.100699 0.540146
v -0.615983 3.111651 0.565722
v -0.593730 3.126918 0.559184
v -0.648779 3.149662 0.519955
v -0.626062 3.172304 0.538970
v -0.626062 3.161914 0.514708
v -0.648779 3.160052 0.544217
v -0.675371 3.178027 0.505570
v -0.675371 3.190037 0.533615
v -0.650580 3.193748 0.498838
v -0.650580 3.205758 0.526882
v -0.709091 3.222036 0.522361
v -0.684878 3.244931 0.512557
v -0.709091 3.208253 0.490176
v -0.684878 3.231148 0.480371
vn -0.6584 -0.6919 0.2963
vn 0.0000 0.3937 0.9193
vn 0.6584 0.6919 -0.2963
vn -0.0000 -0.3937 -0.9193
vn -0.7526 0.6053 -0.2592
vn -0.8168 -0.5303 0.2271
vn -0.1376 -0.2195 -0.9659
vn -0.0602 -0.3003 -0.9519
vn -0.0602 0.4817 0.8743
vn 0.6746 0.6786 -0.2906
vn 0.9130 0.3750 -0.1606
vn -0.1376 0.5476 0.8254
vn 0.6959 0.6601 -0.2827
vn -0.9392 -0.3157 0.1352
vn 0.4678 -0.8125 0.3479
vn -0.7963 -0.5561 0.2381
vn 0.0664 -0.4787 -0.8755
vn 0.0664 0.3033 0.9506
vn 0.2152 0.1149 0.9698
vn 0.2152 -0.6226 -0.7523
vn -0.6167 -0.7237 0.3099
vn 0.9798 0.1838 -0.0787
vn -0.8502 -0.4840 0.2073
vn 0.8381 0.5014 -0.2147
vn -0.0065 0.4026 0.9153
vn -0.0065 -0.3846 -0.9230
vn 0.1026 -0.5523 -0.8273
vn 0.1026 0.2177 0.9706
vn 0.9399 0.3139 -0.1344
vn -0.7185 -0.6393 0.2738
vn 0.7719 0.5844 -0.2502
vn 0.0288 0.3624 0.9316
vn 0.0288 -0.4242 -0.9051
vn -0.7084 -0.6488 0.2778
vn -0.4502 -0.8208 0.3515
vn 0.2494 -0.5798 -0.7756
vn 0.2494 0.1613 0.9549
vn 0.9153 0.3703 -0.1586
usemtl None
s off
f 13//11 14//11 16//11 15//11
f 15//12 16//12 20//12 19//12
f 19//13 20//13 18//13 17//13
f 17//14 18//14 14//14 13//14
f 15//15 19//15 17//15 13//15
f 46//16 45//16 21//16 22//16
f 38//17 37//17 27//17 25//17
f 45//18 47//18 23//18 21//18
f 48//19 46//19 22//19 24//19
f 47//20 48//20 24//20 23//20
f 34//21 33//21 32//21 31//21
f 40//22 39//22 26//22 28//22
f 37//23 40//23 28//23 27//23
f 39//24 38//24 25//24 26//24
f 32//25 30//25 29//25 31//25
f 36//26 35//26 29//26 30//26
f 35//27 34//27 31//27 29//27
f 33//28 36//28 30//28 32//28
f 28//29 26//29 36//29 33//29
f 25//30 27//30 34//30 35//30
f 26//31 25//31 35//31 36//31
f 27//32 28//32 33//32 34//32
f 44//33 41//33 38//33 39//33
f 43//34 42//34 40//34 37//34
f 42//35 44//35 39//35 40//35
f 41//36 43//36 37//36 38//36
f 21//37 23//37 43//37 41//37
f 24//38 22//38 44//38 42//38
f 23//39 24//39 42//39 43//39
f 22//40 21//40 41//40 44//40
f 52//41 50//41 48//41 47//41
f 50//42 49//42 46//42 48//42
f 51//43 52//43 47//43 45//43
f 49//44 51//44 45//44 46//44
f 16//45 14//45 51//45 49//45
f 14//46 18//46 52//46 51//46
f 20//47 16//47 49//47 50//47
f 18//48 20//48 50//48 52//48
o Cube.015
v -0.812538 3.236920 0.462951
v -0.799743 3.182597 0.486214
v -0.812538 3.261523 0.520401
v -0.799743 3.207199 0.543664
v -0.751365 3.248682 0.457914
v -0.738570 3.194359 0.481177
v -0.751365 3.273285 0.515364
v -0.738570 3.218961 0.538627
v -0.757523 3.035791 0.556021
v -0.757523 3.055371 0.601745
v -0.708837 3.045152 0.552012
v -0.708837 3.064733 0.597736
v -0.719895 2.930005 0.605657
v -0.719895 2.946449 0.644056
v -0.678660 2.936137 0.603031
v -0.678660 2.952581 0.641430
v -0.696566 2.861451 0.641740
v -0.696566 2.873028 0.668773
v -0.667537 2.865768 0.639892
v -0.667537 2.877344 0.666924
v -0.674430 2.808161 0.673816
v -0.674430 2.813039 0.685207
v -0.662197 2.809980 0.673037
v -0.662197 2.814858 0.684428
v -0.785395 3.154954 0.505584
v -0.785395 3.174105 0.550305
v -0.737777 3.164110 0.501663
v -0.737777 3.183261 0.546384
v -0.760745 3.068003 0.546584
v -0.719899 3.075856 0.543221
v -0.760745 3.084430 0.584944
v -0.719899 3.092284 0.581580
v -0.705664 3.015639 0.571772
v -0.741611 3.009118 0.574565
v -0.741611 3.023545 0.608254
v -0.705664 3.030066 0.605461
v -0.691085 2.960709 0.598238
v -0.721869 2.968158 0.629030
v -0.721869 2.955861 0.600314
v -0.691085 2.973006 0.626954
v -0.679763 2.925128 0.645704
v -0.679763 2.914100 0.619951
v -0.707418 2.909988 0.621712
v -0.707418 2.921016 0.647465
v -0.674165 2.891029 0.657801
v -0.697272 2.878378 0.637754
v -0.674165 2.881814 0.636283
v -0.697272 2.887593 0.659272
v -0.668737 2.853741 0.649792
v -0.689146 2.850706 0.651092
v -0.689146 2.858845 0.670096
v -0.668737 2.861879 0.668797
vn -0.9774 -0.1945 0.0833
vn 0.0000 0.3937 0.9193
vn 0.9774 0.1945 -0.0833
vn -0.0000 -0.3937 -0.9193
vn -0.2047 0.8998 -0.3853
vn -0.9954 -0.0885 0.0379
vn -0.0325 -0.2059 -0.9780
vn -0.0245 -0.2833 -0.9587
vn -0.0245 0.4984 0.8666
vn 0.9441 0.3030 -0.1298
vn 0.9253 0.3486 -0.1493
vn -0.0325 0.5658 0.8239
vn 0.8917 0.4161 -0.1782
vn -0.9971 -0.0699 0.0300
vn 0.0132 -0.4675 -0.8839
vn -0.9992 -0.0379 0.0162
vn -0.0277 -0.2302 -0.9727
vn -0.0277 0.5452 0.8379
vn 0.1597 -0.9075 0.3886
vn 0.0132 0.3171 0.9483
vn 0.9913 0.1207 -0.0517
vn -0.9562 -0.2692 0.1153
vn 0.9998 0.0203 -0.0087
vn 0.0394 0.2130 0.9763
vn 0.0394 -0.5596 -0.8278
vn -0.9172 -0.3662 0.1568
vn 0.9836 0.1658 -0.0710
vn 0.0071 0.3620 0.9321
vn 0.0071 -0.4248 -0.9052
vn -0.9686 -0.2285 0.0978
vn -0.8944 -0.4111 0.1761
vn 0.9959 0.0832 -0.0356
vn 0.0372 0.2194 0.9749
vn 0.0372 -0.5542 -0.8315
vn -0.9485 -0.2913 0.1247
vn 0.9725 0.2140 -0.0916
vn 0.0079 0.3540 0.9352
vn 0.0079 -0.4326 -0.9015
vn 0.0403 0.1521 0.9875
vn 0.0403 -0.6098 -0.7916
vn -0.8927 -0.4142 0.1774
vn 0.9992 -0.0376 0.0161
vn 0.0100 0.3358 0.9419
vn 0.0100 -0.4500 -0.8930
vn -0.9612 -0.2534 0.1085
vn 0.9882 0.1408 -0.0603
vn -0.8772 -0.4413 0.1890
vn 0.9968 -0.0736 0.0315
vn 0.0458 0.1166 0.9921
vn 0.0458 -0.6376 -0.7690
usemtl None
s off
f 53//49 54//49 56//49 55//49
f 55//50 56//50 60//50 59//50
f 59//51 60//51 58//51 57//51
f 57//52 58//52 54//52 53//52
f 55//53 59//53 57//53 53//53
f 83//54 81//54 61//54 62//54
f 91//55 89//55 67//55 65//55
f 81//56 82//56 63//56 61//56
f 84//57 83//57 62//57 64//57
f 82//58 84//58 64//58 63//58
f 99//59 97//59 72//59 71//59
f 92//60 90//60 66//60 68//60
f 89//61 92//61 68//61 67//61
f 90//62 91//62 65//62 66//62
f 102//63 101//63 75//63 73//63
f 100//64 98//64 69//64 70//64
f 98//65 99//65 71//65 69//65
f 97//66 100//66 70//66 72//66
f 76//67 74//67 73//67 75//67
f 104//68 103//68 74//68 76//68
f 101//69 104//69 76//69 75//69
f 103//70 102//70 73//70 74//70
f 58//71 60//71 80//71 79//71
f 60//72 56//72 78//72 80//72
f 54//73 58//73 79//73 77//73
f 56//74 54//74 77//74 78//74
f 79//75 80//75 84//75 82//75
f 80//76 78//76 83//76 84//76
f 77//77 79//77 82//77 81//77
f 78//78 77//78 81//78 83//78
f 62//79 61//79 86//79 87//79
f 63//80 64//80 88//80 85//80
f 64//81 62//81 87//81 88//81
f 61//82 63//82 85//82 86//82
f 87//83 86//83 91//83 90//83
f 85//84 88//84 92//84 89//84
f 88//85 87//85 90//85 92//85
f 86//86 85//86 89//86 91//86
f 68//87 66//87 96//87 93//87
f 65//88 67//88 94//88 95//88
f 66//89 65//89 95//89 96//89
f 67//90 68//90 93//90 94//90
f 93//91 96//91 100//91 97//91
f 95//92 94//92 99//92 98//92
f 96//93 95//93 98//93 100//93
f 94//94 93//94 97//94 99//94
f 70//95 69//95 102//95 103//95
f 71//96 72//96 104//96 101//96
f 72//97 70//97 103//97 104//97
f 69//98 71//98 101//98 102//98
o Cube.016
v -0.856532 3.242170 0.462638
v -0.854088 3.188037 0.485820
v -0.856532 3.265372 0.516817
v -0.854088 3.211239 0.539999
v -0.797644 3.244417 0.461675
v -0.795200 3.190284 0.484857
v -0.797644 3.267619 0.515855
v -0.795200 3.213486 0.539037
v -0.829274 3.031861 0.558943
v -0.829274 3.050545 0.602573
v -0.781853 3.033670 0.558169
v -0.781853 3.052354 0.601798
v -0.819261 2.901882 0.617555
v -0.819261 2.918432 0.656200
v -0.777257 2.903484 0.616868
v -0.777257 2.920034 0.655514
v -0.811382 2.807458 0.661853
v -0.811382 2.821213 0.693971
v -0.776472 2.808790 0.661282
v -0.776472 2.822545 0.693401
v -0.796438 2.754685 0.697755
v -0.796438 2.758811 0.707392
v -0.785964 2.755084 0.697584
v -0.785964 2.759211 0.707220
v -0.781476 2.798428 0.671799
v -0.805218 2.797522 0.672187
v -0.805218 2.806877 0.694031
v -0.781476 2.807783 0.693643
v -0.780510 2.836712 0.683704
v -0.780510 2.825585 0.657720
v -0.808753 2.824507 0.658181
v -0.808753 2.835635 0.684166
v -0.783498 2.887731 0.631308
v -0.811371 2.897649 0.657407
v -0.783498 2.898712 0.656952
v -0.811371 2.886667 0.631763
v -0.782088 2.923704 0.612324
v -0.816533 2.922390 0.612887
v -0.816533 2.935961 0.644578
v -0.782088 2.937276 0.644016
v -0.821587 3.015104 0.573300
v -0.787357 3.029896 0.604234
v -0.787357 3.016410 0.572741
v -0.821587 3.028590 0.604793
v -0.826798 3.059482 0.553115
v -0.826798 3.073822 0.586603
v -0.790400 3.060870 0.552521
v -0.790400 3.075211 0.586009
v -0.841586 3.178348 0.544363
v -0.800556 3.179914 0.543692
v -0.841586 3.162182 0.506613
v -0.800556 3.163748 0.505943
vn -0.9991 -0.0381 0.0163
vn 0.0000 0.3937 0.9193
vn 0.9991 0.0381 -0.0163
vn 0.0000 -0.3937 -0.9193
vn -0.0415 0.9185 -0.3933
vn -0.9960 0.0819 -0.0351
vn -0.0075 -0.2210 -0.9753
vn -0.0081 -0.2057 -0.9786
vn -0.0081 0.5663 0.8242
vn 0.9541 0.2753 -0.1179
vn 0.9724 0.2144 -0.0918
vn -0.0075 0.5534 0.8329
vn 0.9730 0.2121 -0.0908
vn -0.9914 0.1202 -0.0515
vn 0.0055 -0.5117 -0.8592
vn -0.9884 0.1395 -0.0598
vn -0.0080 -0.2093 -0.9778
vn -0.0080 0.5632 0.8263
vn 0.0415 -0.9185 0.3933
vn 0.0055 0.2687 0.9632
vn 0.9960 -0.0822 0.0352
vn -0.9846 -0.1607 0.0688
vn -0.9061 -0.3889 0.1665
vn 0.9390 -0.3161 0.1354
vn 0.0159 0.0110 0.9998
vn 0.0159 -0.7160 -0.6979
vn -0.0001 0.3962 0.9182
vn -0.0001 -0.3911 -0.9203
vn -0.9992 -0.0356 0.0152
vn 0.9990 0.0406 -0.0174
vn 0.9553 -0.2718 0.1164
vn -0.9275 -0.3436 0.1471
vn 0.0139 -0.6786 -0.7344
vn 0.0139 0.0632 0.9979
vn -0.9987 -0.0460 0.0197
vn 0.9986 0.0480 -0.0205
vn -0.0000 0.3946 0.9188
vn -0.0000 -0.3927 -0.9197
vn 0.0122 -0.6473 -0.7621
vn 0.0122 0.1049 0.9944
vn 0.9691 -0.2269 0.0972
vn -0.9394 -0.3153 0.1350
vn 0.9960 0.0824 -0.0353
vn 0.0008 0.3748 0.9271
vn 0.0008 -0.4124 -0.9110
vn -0.9915 -0.1196 0.0512
vn -0.9313 -0.3349 0.1434
vn 0.0110 -0.6234 -0.7818
vn 0.0110 0.1356 0.9907
vn 0.9868 -0.1486 0.0636
usemtl None
s off
f 105//99 106//99 108//99 107//99
f 107//100 108//100 112//100 111//100
f 111//101 112//101 110//101 109//101
f 109//102 110//102 106//102 105//102
f 107//103 111//103 109//103 105//103
f 150//104 149//104 113//104 114//104
f 142//105 141//105 119//105 117//105
f 149//106 151//106 115//106 113//106
f 152//107 150//107 114//107 116//107
f 151//108 152//108 116//108 115//108
f 134//109 133//109 124//109 123//109
f 144//110 143//110 118//110 120//110
f 141//111 144//111 120//111 119//111
f 143//112 142//112 117//112 118//112
f 130//113 129//113 127//113 125//113
f 136//114 135//114 121//114 122//114
f 135//115 134//115 123//115 121//115
f 133//116 136//116 122//116 124//116
f 128//117 126//117 125//117 127//117
f 132//118 131//118 126//118 128//118
f 129//119 132//119 128//119 127//119
f 131//120 130//120 125//120 126//120
f 122//121 121//121 130//121 131//121
f 123//122 124//122 132//122 129//122
f 124//123 122//123 131//123 132//123
f 121//124 123//124 129//124 130//124
f 139//125 138//125 136//125 133//125
f 140//126 137//126 134//126 135//126
f 138//127 140//127 135//127 136//127
f 137//128 139//128 133//128 134//128
f 119//129 120//129 139//129 137//129
f 118//130 117//130 140//130 138//130
f 117//131 119//131 137//131 140//131
f 120//132 118//132 138//132 139//132
f 148//133 145//133 142//133 143//133
f 147//134 146//134 144//134 141//134
f 146//135 148//135 143//135 144//135
f 145//136 147//136 141//136 142//136
f 113//137 115//137 147//137 145//137
f 116//138 114//138 148//138 146//138
f 115//139 116//139 146//139 147//139
f 114//140 113//140 145//140 148//140
f 156//141 154//141 152//141 151//141
f 154//142 153//142 150//142 152//142
f 155//143 156//143 151//143 149//143
f 153//144 155//144 149//144 150//144
f 108//145 106//145 155//145 153//145
f 106//146 110//146 156//146 155//146
f 112//147 108//147 153//147 154//147
f 110//148 112//148 154//148 156//148
o Cube.017
v -0.899953 3.248644 0.463438
v -0.903380 3.200606 0.484010
v -0.899953 3.269260 0.511579
v -0.903380 3.221222 0.532151
v -0.847695 3.245493 0.464787
v -0.851122 3.197455 0.485359
v -0.847695 3.266109 0.512929
v -0.851122 3.218071 0.533501
v -0.903086 3.050413 0.548732
v -0.903086 3.070738 0.596192
v -0.851586 3.047056 0.550169
v -0.851586 3.067380 0.597630
v -0.907873 2.921523 0.607877
v -0.907873 2.938989 0.648663
v -0.863527 2.920275 0.608412
v -0.863527 2.937741 0.649197
v -0.897438 2.841790 0.650261
v -0.897438 2.853293 0.677123
v -0.868230 2.840968 0.650613
v -0.868230 2.852471 0.677475
v -0.886987 2.781081 0.685217
v -0.886987 2.786101 0.696939
v -0.874241 2.780722 0.685370
v -0.874241 2.785743 0.697093
v -0.898661 3.188417 0.541037
v -0.855876 3.185796 0.542160
v -0.855876 3.168916 0.502743
v -0.898661 3.171537 0.501620
v -0.897535 3.097017 0.578901
v -0.897535 3.081062 0.541644
v -0.857104 3.094414 0.580015
v -0.857104 3.078459 0.542758
v -0.858527 3.041515 0.602839
v -0.858527 3.025437 0.565295
v -0.899279 3.027844 0.564265
v -0.899279 3.043921 0.601808
v -0.867403 2.958329 0.634573
v -0.901066 2.946223 0.603107
v -0.867403 2.945066 0.603603
v -0.901066 2.959486 0.634077
v -0.869490 2.898270 0.625266
v -0.900181 2.899134 0.624897
v -0.900181 2.911222 0.653123
v -0.869490 2.910358 0.653492
v -0.869936 2.853891 0.646467
v -0.896592 2.865139 0.670661
v -0.896592 2.854641 0.646146
v -0.869936 2.864389 0.670983
v -0.872468 2.836620 0.679115
v -0.872468 2.828842 0.660953
v -0.892216 2.829398 0.660715
v -0.892216 2.837176 0.678877
vn -0.9979 0.0602 -0.0258
vn 0.0000 0.3937 0.9193
vn 0.9979 -0.0602 0.0258
vn 0.0000 -0.3937 -0.9193
vn 0.0654 0.9173 -0.3928
vn 0.0123 0.5477 0.8366
vn 0.9879 0.1426 -0.0611
vn 0.9853 0.1572 -0.0673
vn -0.9843 0.1622 -0.0695
vn 0.0123 -0.2275 -0.9737
vn 0.0029 -0.3051 -0.9523
vn -0.9637 0.2453 -0.1050
vn 0.0071 -0.1904 -0.9817
vn 0.0071 0.5791 0.8152
vn 0.9995 -0.0303 0.0130
vn 0.0029 0.4787 0.8780
vn 0.9921 0.1152 -0.0493
vn -0.9980 0.0577 -0.0247
vn -0.0306 -0.9188 0.3935
vn -0.9954 -0.0885 0.0379
vn -0.0020 -0.4524 -0.8918
vn -0.0020 0.3332 0.9428
vn -0.0093 -0.5191 -0.8546
vn -0.9903 -0.1277 0.0547
vn 0.9898 -0.1308 0.0560
vn -0.0093 0.2603 0.9655
vn -0.0008 -0.4046 -0.9145
vn -0.9999 -0.0105 0.0045
vn 0.9999 -0.0114 0.0049
vn -0.0008 0.3827 0.9239
vn -0.0136 0.2020 0.9793
vn -0.0136 -0.5694 -0.8220
vn -0.9901 -0.1290 0.0552
vn 0.9657 -0.2386 0.1022
vn -0.0021 0.3568 0.9342
vn -0.0021 -0.4299 -0.9029
vn -0.9998 0.0182 -0.0078
vn 0.9951 -0.0913 0.0391
vn -0.9625 -0.2495 0.1068
vn 0.9762 -0.1992 0.0853
vn -0.0075 0.1566 0.9876
vn -0.0075 -0.6068 -0.7948
vn -0.9974 -0.0668 0.0286
vn 1.0000 -0.0083 0.0036
vn -0.0013 0.3556 0.9346
vn -0.0013 -0.4310 -0.9023
vn -0.0090 0.1053 0.9944
vn -0.0090 -0.6470 -0.7624
vn -0.9477 -0.2934 0.1256
vn 0.9633 -0.2466 0.1056
usemtl None
s off
f 157//149 158//149 160//149 159//149
f 159//150 160//150 164//150 163//150
f 163//151 164//151 162//151 161//151
f 161//152 162//152 158//152 157//152
f 159//153 163//153 161//153 157//153
f 187//154 185//154 166//154 168//154
f 195//155 193//155 172//155 171//155
f 188//156 187//156 168//156 167//156
f 185//157 186//157 165//157 166//157
f 186//158 188//158 167//158 165//158
f 203//159 201//159 175//159 173//159
f 196//160 194//160 169//160 170//160
f 194//161 195//161 171//161 169//161
f 193//162 196//162 170//162 172//162
f 206//163 205//163 180//163 179//163
f 204//164 202//164 174//164 176//164
f 201//165 204//165 176//165 175//165
f 202//166 203//166 173//166 174//166
f 180//167 178//167 177//167 179//167
f 208//168 207//168 177//168 178//168
f 207//169 206//169 179//169 177//169
f 205//170 208//170 178//170 180//170
f 158//171 162//171 183//171 184//171
f 160//172 158//172 184//172 181//172
f 162//173 164//173 182//173 183//173
f 164//174 160//174 181//174 182//174
f 184//175 183//175 188//175 186//175
f 181//176 184//176 186//176 185//176
f 183//177 182//177 187//177 188//177
f 182//178 181//178 185//178 187//178
f 168//179 166//179 192//179 189//179
f 165//180 167//180 190//180 191//180
f 166//181 165//181 191//181 192//181
f 167//182 168//182 189//182 190//182
f 189//183 192//183 196//183 193//183
f 191//184 190//184 195//184 194//184
f 192//185 191//185 194//185 196//185
f 190//186 189//186 193//186 195//186
f 170//187 169//187 198//187 199//187
f 171//188 172//188 200//188 197//188
f 172//189 170//189 199//189 200//189
f 169//190 171//190 197//190 198//190
f 199//191 198//191 203//191 202//191
f 197//192 200//192 204//192 201//192
f 200//193 199//193 202//193 204//193
f 198//194 197//194 201//194 203//194
f 176//195 174//195 208//195 205//195
f 173//196 175//196 206//196 207//196
f 174//197 173//197 207//197 208//197
f 175//198 176//198 205//198 206//198
o Cube.018
v -0.927225 3.265767 0.459470
v -0.943714 3.226111 0.476452
v -0.927225 3.283948 0.501924
v -0.943714 3.244292 0.518907
v -0.884086 3.250609 0.465961
v -0.900575 3.210953 0.482944
v -0.884086 3.268790 0.508415
v -0.900575 3.229134 0.525398
v -0.976786 3.079271 0.540905
v -0.976786 3.096316 0.580707
v -0.934384 3.071213 0.544356
v -0.934384 3.088258 0.584158
v -0.995940 2.980540 0.587161
v -0.995940 2.994708 0.620244
v -0.960696 2.973842 0.590029
v -0.960696 2.988010 0.623113
v -1.006150 2.919314 0.616924
v -1.006150 2.930918 0.644019
v -0.977285 2.913829 0.619273
v -0.977285 2.925432 0.646368
v -0.998839 2.868982 0.648309
v -0.998839 2.873470 0.658789
v -0.987445 2.868621 0.648464
v -0.987445 2.873109 0.658944
v -0.949204 3.215544 0.524792
v -0.916905 3.204874 0.529362
v -0.916905 3.191343 0.497767
v -0.949204 3.202014 0.493197
v -0.967542 3.116397 0.566689
v -0.967542 3.103274 0.536044
v -0.935101 3.109545 0.569624
v -0.935101 3.096421 0.538978
v -0.943791 3.064663 0.589282
v -0.943791 3.051222 0.557897
v -0.977226 3.057576 0.555176
v -0.977226 3.071017 0.586561
v -0.960877 3.001346 0.613580
v -0.989240 2.995334 0.584647
v -0.960877 2.989944 0.586956
v -0.989240 3.006736 0.611272
v -0.971025 2.958021 0.603602
v -0.994029 2.962393 0.601730
v -0.994029 2.971641 0.623325
v -0.971025 2.967269 0.625197
v -0.979606 2.928592 0.618382
v -0.998691 2.939891 0.634744
v -0.998691 2.932219 0.616829
v -0.979606 2.936264 0.636297
v -0.983052 2.910527 0.646749
v -0.983052 2.903267 0.629798
v -1.001157 2.906341 0.628482
v -1.001157 2.913600 0.645433
vn -0.9341 0.3282 -0.1406
vn -0.0000 0.3937 0.9193
vn 0.9341 -0.3282 0.1405
vn 0.0000 -0.3937 -0.9193
vn 0.3570 0.8587 -0.3677
vn 0.0414 0.5617 0.8263
vn 0.9999 0.0104 -0.0045
vn 0.9996 0.0261 -0.0112
vn -0.9331 0.3306 -0.1416
vn 0.0414 -0.2104 -0.9767
vn 0.0718 -0.0488 -0.9962
vn -0.9087 0.3837 -0.1643
vn 0.0444 -0.1868 -0.9814
vn 0.0444 0.5814 0.8124
vn 0.9938 -0.1024 0.0439
vn 0.0718 0.6874 0.7228
vn 0.9864 0.1512 -0.0647
vn -0.8473 0.4882 -0.2091
vn -0.0345 -0.9187 0.3934
vn -0.9985 -0.0505 0.0216
vn -0.0109 -0.4712 -0.8820
vn -0.0109 0.3132 0.9496
vn -0.0709 -0.5605 -0.8251
vn -0.9822 0.1725 -0.0739
vn 0.8252 -0.5192 0.2223
vn -0.0709 0.2104 0.9750
vn -0.0014 -0.3979 -0.9174
vn -0.9858 0.1544 -0.0661
vn 0.9849 -0.1592 0.0682
vn -0.0014 0.3894 0.9211
vn -0.0363 0.2259 0.9735
vn -0.0363 -0.5487 -0.8352
vn -0.9999 0.0158 -0.0068
vn 0.9295 -0.3390 0.1452
vn -0.0075 0.3600 0.9329
vn -0.0075 -0.4268 -0.9043
vn -0.9851 0.1581 -0.0677
vn 0.9697 -0.2247 0.0962
vn -0.9964 -0.0781 0.0334
vn 0.8874 -0.4237 0.1814
vn -0.0563 0.1276 0.9902
vn -0.0563 -0.6287 -0.7756
vn -0.9906 0.1260 -0.0540
vn 0.9676 -0.2322 0.0994
vn -0.0119 0.3400 0.9404
vn -0.0119 -0.4460 -0.8950
vn -0.0673 0.0571 0.9961
vn -0.0673 -0.6815 -0.7287
vn -0.9570 -0.2666 0.1142
vn 0.9232 -0.3533 0.1513
usemtl None
s off
f 209//199 210//199 212//199 211//199
f 211//200 212//200 216//200 215//200
f 215//201 216//201 214//201 213//201
f 213//202 214//202 210//202 209//202
f 211//203 215//203 213//203 209//203
f 239//204 237//204 218//204 220//204
f 247//205 245//205 224//205 223//205
f 240//206 239//206 220//206 219//206
f 237//207 238//207 217//207 218//207
f 238//208 240//208 219//208 217//208
f 255//209 253//209 227//209 225//209
f 248//210 246//210 221//210 222//210
f 246//211 247//211 223//211 221//211
f 245//212 248//212 222//212 224//212
f 258//213 257//213 232//213 231//213
f 256//214 254//214 226//214 228//214
f 253//215 256//215 228//215 227//215
f 254//216 255//216 225//216 226//216
f 232//217 230//217 229//217 231//217
f 260//218 259//218 229//218 230//218
f 259//219 258//219 231//219 229//219
f 257//220 260//220 230//220 232//220
f 210//221 214//221 235//221 236//221
f 212//222 210//222 236//222 233//222
f 214//223 216//223 234//223 235//223
f 216//224 212//224 233//224 234//224
f 236//225 235//225 240//225 238//225
f 233//226 236//226 238//226 237//226
f 235//227 234//227 239//227 240//227
f 234//228 233//228 237//228 239//228
f 220//229 218//229 244//229 241//229
f 217//230 219//230 242//230 243//230
f 218//231 217//231 243//231 244//231
f 219//232 220//232 241//232 242//232
f 241//233 244//233 248//233 245//233
f 243//234 242//234 247//234 246//234
f 244//235 243//235 246//235 248//235
f 242//236 241//236 245//236 247//236
f 222//237 221//237 250//237 251//237
f 223//238 224//238 252//238 249//238
f 224//239 222//239 251//239 252//239
f 221//240 223//240 249//240 250//240
f 251//241 250//241 255//241 254//241
f 249//242 252//242 256//242 253//242
f 252//243 251//243 254//243 256//243
f 250//244 249//244 253//244 255//244
f 228//245 226//245 260//245 257//245
f 225//246 227//246 258//246 259//246
f 226//247 225//247 259//247 260//247
f 227//248 228//248 257//248 258//248
