# Blender v2.78 (sub 0) OBJ File: ''
# www.blender.org
mtllib leg_right_lower.mtl
o Cube.001_Cube.004
v -0.390808 1.554126 0.149305
v -0.493142 1.766082 0.155264
v -0.390808 1.554126 0.021324
v -0.493142 1.766082 -0.076206
v -0.262827 1.554126 0.149305
v -0.179673 1.803676 0.155264
v -0.262827 1.554126 0.021324
v -0.179673 1.803676 -0.076206
v -0.347635 1.222405 0.090469
v -0.347635 1.222405 0.010154
v -0.267320 1.222405 0.090469
v -0.267320 1.222405 0.010154
v -0.432042 1.663329 0.175150
v -0.432042 1.663329 -0.032358
v -0.225490 1.679330 -0.032358
v -0.225490 1.679330 0.175150
v -0.331573 0.934904 0.046462
v -0.331573 0.934904 -0.024587
v -0.260525 0.934904 0.046462
v -0.260525 0.934904 -0.024587
v -0.338465 0.560006 0.011404
v -0.338465 0.560006 -0.094526
v -0.232535 0.560006 0.011404
v -0.232535 0.560006 -0.094526
v -0.390558 0.340621 0.040496
v -0.390558 0.340621 -0.154242
v -0.197627 0.367088 0.040496
v -0.197627 0.367088 -0.154242
v -0.232584 0.447110 -0.118156
v -0.354363 0.435570 -0.118156
v -0.232584 0.447110 0.004410
v -0.354363 0.435570 0.004410
v -0.462592 1.714705 0.167771
v -0.462592 1.714705 -0.059410
v -0.202581 1.741503 -0.059410
v -0.202581 1.741503 0.167771
vn -0.8595 -0.5111 0.0000
vn 0.0316 -0.2816 -0.9590
vn 0.9383 -0.3457 0.0000
vn -0.0240 0.2135 0.9766
vn 0.0000 0.0337 -0.9994
vn -0.1191 0.9929 0.0000
vn 0.0000 -0.1513 0.9885
vn -0.9916 -0.1291 0.0000
vn 0.9999 -0.0135 0.0000
vn 0.0000 -0.1746 0.9846
vn 0.0103 -0.2152 0.9765
vn 0.9583 -0.2858 0.0000
vn 0.0199 -0.4161 -0.9091
vn -0.9355 -0.3533 0.0000
vn 0.0000 -0.0931 0.9957
vn 0.0000 0.1200 -0.9928
vn 0.9997 0.0236 0.0000
vn -0.9984 -0.0558 0.0000
vn -0.0460 0.3812 -0.9234
vn 0.0000 0.1834 -0.9830
vn 0.9972 0.0745 0.0000
vn -0.9998 0.0184 0.0000
vn 0.1359 -0.9907 0.0000
vn 0.9164 0.4003 0.0000
vn -0.9344 0.3562 0.0000
vn -0.0460 0.3812 0.9234
vn 0.0030 -0.0590 0.9983
vn -0.9919 0.1267 0.0000
vn 1.0000 -0.0004 0.0000
vn -0.0099 0.1959 -0.9806
vn -0.0118 0.1281 0.9917
vn 0.0392 -0.4277 -0.9031
usemtl None
s off
f 33//1 2//1 4//1 34//1
f 34//2 4//2 8//2 35//2
f 35//3 8//3 6//3 36//3
f 36//4 6//4 2//4 33//4
f 3//5 7//5 12//5 10//5
f 8//6 4//6 2//6 6//6
f 11//7 9//7 17//7 19//7
f 1//8 3//8 10//8 9//8
f 7//9 5//9 11//9 12//9
f 5//10 1//10 9//10 11//10
f 5//11 16//11 13//11 1//11
f 7//12 15//12 16//12 5//12
f 3//13 14//13 15//13 7//13
f 1//14 13//14 14//14 3//14
f 19//15 17//15 21//15 23//15
f 10//16 12//16 20//16 18//16
f 12//17 11//17 19//17 20//17
f 9//18 10//18 18//18 17//18
f 30//19 29//19 28//19 26//19
f 18//20 20//20 24//20 22//20
f 20//21 19//21 23//21 24//21
f 17//22 18//22 22//22 21//22
f 26//23 28//23 27//23 25//23
f 29//24 31//24 27//24 28//24
f 32//25 30//25 26//25 25//25
f 31//26 32//26 25//26 27//26
f 23//27 21//27 32//27 31//27
f 21//28 22//28 30//28 32//28
f 24//29 23//29 31//29 29//29
f 22//30 24//30 29//30 30//30
f 16//31 36//31 33//31 13//31
f 15//3 35//3 36//3 16//3
f 14//32 34//32 35//32 15//32
f 13//1 33//1 34//1 14//1
o Cube.002_Cube.005
v -0.499757 1.641466 0.086300
v -0.480927 1.715510 0.086300
v -0.499757 1.641466 0.020655
v -0.480927 1.715510 0.020655
v -0.434111 1.641466 0.086300
v -0.433864 1.669745 0.086300
v -0.434111 1.641466 0.020655
v -0.433864 1.669745 0.020655
v -0.448678 1.384934 0.052987
v -0.448678 1.384934 0.016241
v -0.411933 1.384934 0.052987
v -0.411933 1.384934 0.016241
v -0.483783 1.584933 0.072522
v -0.445694 1.584933 0.072522
v -0.445694 1.584933 0.034433
v -0.483783 1.584933 0.034433
v -0.507828 1.685965 0.097616
v -0.507828 1.685965 0.009339
v -0.432046 1.655194 0.009339
v -0.432046 1.655194 0.097616
v -0.391538 0.753326 -0.002928
v -0.391538 0.753326 -0.039674
v -0.354792 0.753326 -0.002928
v -0.354792 0.753326 -0.039674
v -0.363290 0.403249 -0.043411
v -0.363290 0.403249 -0.076406
v -0.330295 0.403249 -0.043411
v -0.330295 0.403249 -0.076406
vn -0.7394 0.6733 0.0000
vn 0.2156 0.3460 -0.9131
vn 0.9923 0.1240 0.0000
vn 0.2156 0.3460 0.9131
vn 0.0000 -0.0972 0.9953
vn 0.6971 0.7169 0.0000
vn 0.9959 0.0901 0.0000
vn 0.0000 0.0906 -0.9959
vn -0.9849 -0.1729 0.0000
vn 0.9860 0.1665 0.0000
vn 0.9796 -0.2007 0.0000
vn -0.9623 -0.2719 0.0000
vn 0.0000 -0.2368 -0.9716
vn 0.0000 -0.2368 0.9716
vn -0.0801 -0.3683 0.9263
vn 0.9889 -0.1488 0.0000
vn -0.0801 -0.3683 -0.9263
vn -0.9839 -0.1785 0.0000
vn -0.9968 -0.0804 0.0000
vn -0.9959 -0.0901 0.0000
vn 0.0000 -0.0882 0.9961
vn 0.0000 0.0882 -0.9961
vn 0.0000 -1.0000 0.0000
vn 0.0000 -0.1149 0.9934
vn 0.0000 0.1044 -0.9945
vn 0.9976 0.0698 0.0000
usemtl None
s off
f 53//33 38//33 40//33 54//33
f 54//34 40//34 44//34 55//34
f 55//35 44//35 42//35 56//35
f 56//36 42//36 38//36 53//36
f 50//37 49//37 45//37 47//37
f 44//38 40//38 38//38 42//38
f 48//39 47//39 59//39 60//39
f 52//40 51//40 48//40 46//40
f 49//41 52//41 46//41 45//41
f 51//42 50//42 47//42 48//42
f 43//43 41//43 50//43 51//43
f 37//44 39//44 52//44 49//44
f 39//45 43//45 51//45 52//45
f 41//46 37//46 49//46 50//46
f 41//47 56//47 53//47 37//47
f 43//48 55//48 56//48 41//48
f 39//49 54//49 55//49 43//49
f 37//50 53//50 54//50 39//50
f 57//51 58//51 62//51 61//51
f 45//52 46//52 58//52 57//52
f 47//53 45//53 57//53 59//53
f 46//54 48//54 60//54 58//54
f 62//55 64//55 63//55 61//55
f 59//56 57//56 61//56 63//56
f 58//57 60//57 64//57 62//57
f 60//58 59//58 63//58 64//58
