# Blender v2.78 (sub 0) OBJ File: ''
# www.blender.org
mtllib leg_left_upper.mtl
o left_leg_upper_Cube.027
v 0.547978 3.461584 0.202033
v 0.427104 3.689609 0.171706
v 0.547978 3.461584 0.030693
v 0.427104 3.689609 0.061019
v 0.376638 3.461584 0.202033
v 0.364195 3.598536 0.171706
v 0.376638 3.461584 0.030693
v 0.364195 3.598536 0.061019
v 0.533466 3.397455 0.179234
v 0.533466 3.397455 0.053491
v 0.407722 3.397455 0.179234
v 0.407722 3.397455 0.053491
v 0.595059 3.633538 0.248694
v 0.595059 3.633538 -0.015969
v 0.381401 3.533649 -0.015969
v 0.381401 3.533649 0.248694
v 0.509191 2.931216 0.201970
v 0.509191 2.931216 0.087916
v 0.395137 2.931216 0.201970
v 0.395137 2.931216 0.087916
v 0.451586 2.342770 0.227497
v 0.451586 2.342770 0.086886
v 0.310975 2.342770 0.227497
v 0.310975 2.342770 0.086886
v 0.446890 2.019276 0.179435
v 0.446890 2.045092 -0.038153
v 0.227776 2.019276 0.179435
v 0.227776 2.045092 -0.038153
v 0.481822 1.921320 0.227388
v 0.481822 1.961077 -0.107696
v 0.144643 1.934355 0.228934
v 0.144643 1.974113 -0.106150
v 0.468363 1.791076 0.187525
v 0.468363 1.825121 -0.099418
v 0.179626 1.802239 0.188850
v 0.179626 1.836284 -0.098094
v 0.501279 1.852098 0.233360
v 0.135948 1.866222 0.235036
v 0.135948 1.909298 -0.128025
v 0.501279 1.895175 -0.129701
vn 0.3167 0.9485 -0.0000
vn -0.3415 0.4946 -0.7992
vn -0.9666 -0.2563 0.0000
vn -0.3415 0.4946 0.7992
vn 0.0000 -0.3350 -0.9422
vn -0.8228 0.5683 0.0000
vn 0.0000 0.0487 0.9988
vn 0.9753 -0.2207 0.0000
vn -0.8999 -0.4362 0.0000
vn 0.0000 -0.3350 0.9422
vn 0.0969 -0.3734 0.9226
vn -0.9978 0.0660 0.0000
vn 0.0969 -0.3734 -0.9226
vn 0.9645 -0.2641 0.0000
vn 0.0000 0.0433 0.9991
vn 0.0000 -0.0736 -0.9973
vn -0.9996 0.0270 0.0000
vn 0.9986 -0.0520 0.0000
vn 0.0000 0.3873 -0.9220
vn 0.0000 0.0017 -1.0000
vn -0.9899 0.1416 0.0000
vn 0.9952 -0.0974 0.0000
vn -0.6865 0.7220 0.0857
vn -0.9670 0.2540 0.0183
vn 0.9999 -0.0148 -0.0011
vn 0.0000 -0.1470 0.9891
vn -0.0193 -0.5938 0.8044
vn 0.9344 0.3538 0.0420
vn 0.0134 0.4675 0.8839
vn 0.0134 0.6613 -0.7500
vn -0.0389 -0.9923 -0.1177
vn -0.0193 -0.3891 -0.9210
vn -0.8449 -0.5312 -0.0630
vn 0.8949 -0.4432 -0.0526
vn 0.9615 0.2730 0.0324
vn -0.9917 0.1279 0.0152
vn 0.0080 0.3188 -0.9478
vn 0.0080 0.0882 0.9961
usemtl None
s off
f 13//1 14//1 4//1 2//1
f 14//2 15//2 8//2 4//2
f 15//3 16//3 6//3 8//3
f 16//4 13//4 2//4 6//4
f 3//5 10//5 12//5 7//5
f 8//6 6//6 2//6 4//6
f 11//7 19//7 17//7 9//7
f 1//8 9//8 10//8 3//8
f 7//9 12//9 11//9 5//9
f 5//10 11//10 9//10 1//10
f 5//11 1//11 13//11 16//11
f 7//12 5//12 16//12 15//12
f 3//13 7//13 15//13 14//13
f 1//14 3//14 14//14 13//14
f 19//15 23//15 21//15 17//15
f 10//16 18//16 20//16 12//16
f 12//17 20//17 19//17 11//17
f 9//18 17//18 18//18 10//18
f 22//19 26//19 28//19 24//19
f 18//20 22//20 24//20 20//20
f 20//21 24//21 23//21 19//21
f 17//22 21//22 22//22 18//22
f 28//23 32//23 31//23 27//23
f 24//24 28//24 27//24 23//24
f 21//25 25//25 26//25 22//25
f 23//26 27//26 25//26 21//26
f 38//27 35//27 33//27 37//27
f 25//28 29//28 30//28 26//28
f 27//29 31//29 29//29 25//29
f 26//30 30//30 32//30 28//30
f 34//31 33//31 35//31 36//31
f 40//32 34//32 36//32 39//32
f 39//33 36//33 35//33 38//33
f 37//34 33//34 34//34 40//34
f 29//35 37//35 40//35 30//35
f 32//36 39//36 38//36 31//36
f 30//37 40//37 39//37 32//37
f 31//38 38//38 37//38 29//38
