# Blender v2.78 (sub 0) OBJ File: ''
# www.blender.org
mtllib leg_left_lower.mtl
o left_leg_lower_Cube.028
v 0.411454 0.227620 0.042698
v 0.363805 0.348733 0.013084
v 0.411454 0.227620 -0.169570
v 0.363805 0.348733 -0.139955
v 0.205661 0.253214 0.042698
v 0.215435 0.367186 0.013084
v 0.205661 0.253214 -0.169570
v 0.215435 0.367186 -0.139955
v 0.499757 1.641467 0.086300
v 0.480927 1.715509 0.086300
v 0.499757 1.641467 0.020655
v 0.480927 1.715509 0.020655
v 0.434111 1.641467 0.086300
v 0.433864 1.669745 0.086300
v 0.434111 1.641467 0.020655
v 0.433864 1.669745 0.020655
v 0.448678 1.384934 0.052987
v 0.448678 1.384934 0.016241
v 0.411933 1.384934 0.052987
v 0.411933 1.384934 0.016241
v 0.483783 1.584933 0.072522
v 0.445695 1.584933 0.072522
v 0.445695 1.584933 0.034433
v 0.483783 1.584933 0.034433
v 0.507828 1.685966 0.097616
v 0.507828 1.685966 0.009339
v 0.432046 1.655194 0.009339
v 0.432046 1.655194 0.097616
v 0.391538 0.753326 -0.002928
v 0.391538 0.753326 -0.039674
v 0.354792 0.753326 -0.002928
v 0.354792 0.753326 -0.039674
v 0.363290 0.403249 -0.043411
v 0.363290 0.403249 -0.076406
v 0.330295 0.403249 -0.043411
v 0.330295 0.403249 -0.076406
v 0.390808 1.554126 0.149305
v 0.493142 1.766082 0.155264
v 0.390808 1.554126 0.021324
v 0.493142 1.766082 -0.076206
v 0.262827 1.554126 0.149305
v 0.179673 1.803676 0.155264
v 0.262827 1.554126 0.021324
v 0.179673 1.803676 -0.076206
v 0.347635 1.222405 0.090469
v 0.347635 1.222405 0.010154
v 0.267320 1.222405 0.090469
v 0.267320 1.222405 0.010154
v 0.432042 1.663329 0.175150
v 0.432042 1.663329 -0.032358
v 0.225490 1.679330 -0.032358
v 0.225490 1.679330 0.175150
v 0.331573 0.934904 0.046462
v 0.331573 0.934904 -0.024587
v 0.260525 0.934904 0.046462
v 0.260525 0.934904 -0.024587
v 0.338465 0.560007 0.011404
v 0.338465 0.560007 -0.094526
v 0.232535 0.560007 0.011404
v 0.232535 0.560007 -0.094526
v 0.390558 0.340621 0.040496
v 0.390558 0.340621 -0.154242
v 0.197627 0.367088 0.040496
v 0.197627 0.367088 -0.154242
v 0.232584 0.447110 -0.118156
v 0.354363 0.435570 -0.118156
v 0.232584 0.447110 0.004410
v 0.354363 0.435570 0.004410
v 0.462592 1.714705 0.167771
v 0.462592 1.714705 -0.059410
v 0.202581 1.741503 -0.059410
v 0.202581 1.741503 0.167771
vn 0.9306 0.3661 0.0000
vn 0.0310 0.2489 -0.9680
vn -0.9963 0.0854 0.0000
vn 0.0310 0.2489 0.9680
vn -0.1234 -0.9924 0.0000
vn 0.1234 0.9924 0.0000
vn 0.7394 0.6733 0.0000
vn -0.2156 0.3460 -0.9131
vn -0.9923 0.1240 0.0000
vn -0.2156 0.3460 0.9131
vn 0.0000 -0.0972 0.9953
vn -0.6971 0.7169 0.0000
vn -0.9959 0.0901 0.0000
vn 0.0000 0.0906 -0.9959
vn 0.9849 -0.1729 0.0000
vn -0.9860 0.1665 0.0000
vn -0.9796 -0.2007 0.0000
vn 0.9623 -0.2719 0.0000
vn 0.0000 -0.2368 -0.9716
vn 0.0000 -0.2368 0.9716
vn 0.0801 -0.3683 0.9263
vn -0.9889 -0.1488 0.0000
vn 0.0801 -0.3683 -0.9263
vn 0.9839 -0.1785 0.0000
vn 0.9968 -0.0804 0.0000
vn 0.9959 -0.0901 0.0000
vn 0.0000 -0.0882 0.9961
vn 0.0000 0.0882 -0.9961
vn 0.0000 -1.0000 0.0000
vn 0.0000 -0.1149 0.9934
vn 0.0000 0.1044 -0.9945
vn -0.9976 0.0698 0.0000
vn 0.8595 -0.5111 0.0000
vn -0.0316 -0.2816 -0.9590
vn -0.9383 -0.3457 0.0000
vn 0.0240 0.2135 0.9766
vn 0.0000 0.0337 -0.9994
vn 0.1191 0.9929 0.0000
vn 0.0000 -0.1513 0.9885
vn 0.9916 -0.1291 0.0000
vn -0.9999 -0.0135 0.0000
vn 0.0000 -0.1746 0.9846
vn -0.0103 -0.2152 0.9765
vn -0.9583 -0.2858 0.0000
vn -0.0199 -0.4161 -0.9091
vn 0.9355 -0.3533 0.0000
vn 0.0000 -0.0931 0.9957
vn 0.0000 0.1200 -0.9928
vn -0.9997 0.0236 0.0000
vn 0.9984 -0.0558 0.0000
vn 0.0460 0.3812 -0.9234
vn 0.0000 0.1834 -0.9830
vn -0.9972 0.0745 0.0000
vn 0.9998 0.0184 0.0000
vn -0.1359 -0.9907 0.0000
vn -0.9164 0.4003 0.0000
vn 0.9344 0.3562 0.0000
vn 0.0460 0.3812 0.9234
vn -0.0030 -0.0590 0.9983
vn 0.9919 0.1267 0.0000
vn -1.0000 -0.0004 0.0000
vn 0.0099 0.1959 -0.9806
vn 0.0118 0.1281 0.9917
vn -0.0392 -0.4277 -0.9031
usemtl None
s off
f 1//1 3//1 4//1 2//1
f 3//2 7//2 8//2 4//2
f 7//3 5//3 6//3 8//3
f 5//4 1//4 2//4 6//4
f 3//5 1//5 5//5 7//5
f 8//6 6//6 2//6 4//6
f 25//7 26//7 12//7 10//7
f 26//8 27//8 16//8 12//8
f 27//9 28//9 14//9 16//9
f 28//10 25//10 10//10 14//10
f 22//11 19//11 17//11 21//11
f 16//12 14//12 10//12 12//12
f 20//13 32//13 31//13 19//13
f 24//14 18//14 20//14 23//14
f 21//15 17//15 18//15 24//15
f 23//16 20//16 19//16 22//16
f 15//17 23//17 22//17 13//17
f 9//18 21//18 24//18 11//18
f 11//19 24//19 23//19 15//19
f 13//20 22//20 21//20 9//20
f 13//21 9//21 25//21 28//21
f 15//22 13//22 28//22 27//22
f 11//23 15//23 27//23 26//23
f 9//24 11//24 26//24 25//24
f 29//25 33//25 34//25 30//25
f 17//26 29//26 30//26 18//26
f 19//27 31//27 29//27 17//27
f 18//28 30//28 32//28 20//28
f 34//29 33//29 35//29 36//29
f 31//30 35//30 33//30 29//30
f 30//31 34//31 36//31 32//31
f 32//32 36//32 35//32 31//32
f 69//33 70//33 40//33 38//33
f 70//34 71//34 44//34 40//34
f 71//35 72//35 42//35 44//35
f 72//36 69//36 38//36 42//36
f 39//37 46//37 48//37 43//37
f 44//38 42//38 38//38 40//38
f 47//39 55//39 53//39 45//39
f 37//40 45//40 46//40 39//40
f 43//41 48//41 47//41 41//41
f 41//42 47//42 45//42 37//42
f 41//43 37//43 49//43 52//43
f 43//44 41//44 52//44 51//44
f 39//45 43//45 51//45 50//45
f 37//46 39//46 50//46 49//46
f 55//47 59//47 57//47 53//47
f 46//48 54//48 56//48 48//48
f 48//49 56//49 55//49 47//49
f 45//50 53//50 54//50 46//50
f 66//51 62//51 64//51 65//51
f 54//52 58//52 60//52 56//52
f 56//53 60//53 59//53 55//53
f 53//54 57//54 58//54 54//54
f 62//55 61//55 63//55 64//55
f 65//56 64//56 63//56 67//56
f 68//57 61//57 62//57 66//57
f 67//58 63//58 61//58 68//58
f 59//59 67//59 68//59 57//59
f 57//60 68//60 66//60 58//60
f 60//61 65//61 67//61 59//61
f 58//62 66//62 65//62 60//62
f 52//63 49//63 69//63 72//63
f 51//35 52//35 72//35 71//35
f 50//64 51//64 71//64 70//64
f 49//33 50//33 70//33 69//33
